<?xml version="1.0" encoding="UTF-8"?>
<svg xmlns="http://www.w3.org/2000/svg" xmlns:xlink="http://www.w3.org/1999/xlink" width="390px" height="214px" viewBox="0 0 390 214" version="1.1">
<g id="surface1">
<path style=" stroke:none;fill-rule:nonzero;fill:rgb(94.509804%,94.509804%,94.509804%);fill-opacity:1;" d="M 59.714844 182.855469 C 51.074219 189.300781 48.628906 200.636719 48.628906 200.636719 C 48.628906 200.636719 60.1875 201.523438 68.828125 195.082031 C 77.46875 188.640625 79.917969 177.300781 79.917969 177.300781 C 79.917969 177.300781 68.355469 176.410156 59.714844 182.855469 Z M 59.714844 182.855469 "/>
<path style=" stroke:none;fill-rule:nonzero;fill:rgb(94.509804%,94.509804%,94.509804%);fill-opacity:1;" d="M 63.316406 185.878906 C 59.164062 195.832031 48.761719 200.957031 48.761719 200.957031 C 48.761719 200.957031 45.09375 189.949219 49.246094 180.003906 C 53.402344 170.054688 63.800781 164.925781 63.800781 164.925781 C 63.800781 164.925781 67.46875 175.929688 63.316406 185.878906 Z M 63.316406 185.878906 "/>
<path style=" stroke:none;fill-rule:nonzero;fill:rgb(79.215686%,79.215686%,79.215686%);fill-opacity:1;" d="M 311.917969 157.117188 C 311.003906 150.929688 310.757812 144.660156 311.195312 138.421875 L 311.917969 128.09375 C 307.933594 136.027344 308.832031 146.472656 311.917969 157.117188 Z M 311.917969 157.117188 "/>
<path style=" stroke:none;fill-rule:nonzero;fill:rgb(79.215686%,79.215686%,79.215686%);fill-opacity:1;" d="M 315.027344 158.84375 C 314.585938 155.152344 314.46875 151.425781 314.679688 147.714844 L 315.027344 141.570312 C 313.109375 146.292969 313.542969 152.507812 315.027344 158.84375 Z M 315.027344 158.84375 "/>
<path style=" stroke:none;fill-rule:nonzero;fill:rgb(94.901961%,94.901961%,94.901961%);fill-opacity:1;" d="M 328.839844 166.445312 L 328.839844 169.902344 C 328.839844 170.472656 328.378906 170.933594 327.808594 170.9375 L 326.078125 170.9375 C 325.988281 170.9375 325.902344 170.972656 325.835938 171.039062 C 325.769531 171.105469 325.734375 171.191406 325.734375 171.285156 L 325.734375 199.613281 C 325.730469 200.1875 325.269531 200.648438 324.699219 200.648438 L 303.632812 200.648438 C 303.0625 200.648438 302.597656 200.1875 302.597656 199.613281 L 302.597656 171.285156 C 302.597656 171.09375 302.441406 170.9375 302.25 170.9375 L 300.179688 170.9375 C 299.609375 170.9375 299.144531 170.472656 299.140625 169.902344 L 299.140625 166.445312 C 299.140625 166.167969 299.25 165.90625 299.445312 165.710938 C 299.640625 165.519531 299.90625 165.410156 300.179688 165.410156 L 327.808594 165.410156 C 328.378906 165.414062 328.839844 165.875 328.839844 166.445312 Z M 328.839844 166.445312 "/>
<path style=" stroke:none;fill-rule:nonzero;fill:rgb(90.196078%,90.196078%,90.196078%);fill-opacity:1;" d="M 302.628906 171.664062 L 325.765625 171.664062 L 325.765625 172.699219 L 302.628906 172.699219 Z M 302.628906 171.664062 "/>
<path style=" stroke:none;fill-rule:nonzero;fill:rgb(90.196078%,90.196078%,90.196078%);fill-opacity:1;" d="M 325.734375 186.914062 C 317.992188 190.121094 310.167969 190.15625 302.25 186.914062 L 302.25 179.613281 C 309.871094 177.054688 318.117188 177.054688 325.734375 179.613281 Z M 325.734375 186.914062 "/>
<path style=" stroke:none;fill-rule:nonzero;fill:rgb(99.607843%,72.156863%,72.156863%);fill-opacity:1;" d="M 227.339844 43.957031 C 227.339844 61.246094 213.324219 75.265625 196.042969 75.265625 C 178.757812 75.265625 164.746094 61.246094 164.746094 43.957031 C 164.746094 26.667969 178.757812 12.648438 196.042969 12.648438 C 213.324219 12.648438 227.339844 26.667969 227.339844 43.957031 Z M 227.339844 43.957031 "/>
<path style=" stroke:none;fill-rule:nonzero;fill:rgb(18.431373%,18.039216%,25.490196%);fill-opacity:1;" d="M 225.273438 16.945312 C 220.59375 9.34375 213.269531 3.742188 204.710938 1.21875 L 200.867188 4.027344 L 200.867188 0.382812 C 198.8125 0.0664062 196.734375 -0.0546875 194.652344 0.0234375 L 191.339844 3.023438 L 191.339844 0.269531 C 181.417969 1.503906 172.460938 6.832031 166.640625 14.964844 C 159.445312 25.347656 158.226562 39.792969 165.308594 50.257812 C 167.253906 44.28125 169.613281 38.675781 171.554688 32.699219 C 173.082031 32.910156 174.628906 32.914062 176.164062 32.722656 L 178.523438 27.203125 L 179.1875 32.488281 C 186.515625 31.847656 197.386719 30.445312 204.332031 29.164062 L 203.660156 25.105469 L 207.703125 28.476562 C 209.828125 27.984375 211.09375 27.542969 210.988281 27.199219 C 216.15625 35.539062 222.480469 40.859375 227.648438 49.195312 C 229.613281 37.441406 231.871094 27.667969 225.273438 16.945312 Z M 225.273438 16.945312 "/>
<path style=" stroke:none;fill-rule:nonzero;fill:rgb(20.784314%,97.647059%,14.901961%);fill-opacity:1;" d="M 263.351562 124.472656 C 262.273438 117.992188 261.164062 111.390625 258.152344 105.558594 C 256.179688 101.734375 253.039062 98.09375 248.808594 97.335938 C 247.972656 97.261719 247.15625 97.070312 246.371094 96.773438 C 245.132812 96.175781 228.46875 86.65625 225.820312 85 C 223.546875 83.578125 219.957031 80.941406 218.148438 80.941406 C 216.324219 80.902344 209.34375 82.527344 182.089844 80.398438 C 182.089844 80.398438 174.605469 83.351562 168.8125 86.929688 C 168.722656 86.875 140.523438 102.019531 139.464844 101.980469 C 137.457031 101.898438 135.59375 103.179688 134.445312 104.800781 C 133.292969 106.417969 132.757812 108.421875 132.191406 110.359375 C 138.351562 124.078125 143.984375 137.820312 150.144531 151.542969 C 150.433594 152.058594 150.585938 152.636719 150.589844 153.230469 C 150.464844 153.847656 150.207031 154.425781 149.824219 154.921875 C 146.804688 159.777344 146.898438 165.882812 147.226562 171.585938 C 147.558594 177.292969 147.964844 183.320312 145.417969 188.433594 C 144.726562 189.835938 143.824219 191.121094 143.164062 192.527344 C 141.621094 195.703125 141.0625 205.875 141.964844 209.292969 L 254.949219 212.53125 C 252.523438 205.847656 263.351562 124.472656 263.351562 124.472656 Z M 263.351562 124.472656 "/>
<path style=" stroke:none;fill-rule:nonzero;fill:rgb(98.431373%,74.509804%,74.509804%);fill-opacity:1;" d="M 122.425781 152.148438 C 122.199219 153.78125 122.175781 155.433594 122.355469 157.074219 L 123.976562 180.339844 C 124.128906 182.53125 124.277344 184.71875 124.484375 186.90625 C 124.871094 191.148438 125.453125 195.363281 126.175781 199.566406 C 126.207031 200.808594 127.238281 201.789062 128.484375 201.761719 C 135.609375 203.269531 142.976562 203.207031 150.253906 202.796875 C 161.351562 202.179688 189.757812 201.003906 191.488281 198.75 C 193.226562 196.496094 192.214844 192.847656 189.953125 191.023438 C 187.691406 189.203125 150.207031 184.757812 150.207031 184.757812 C 150.574219 181.851562 151.679688 179.117188 152.726562 176.359375 C 154.609375 171.46875 156.367188 166.421875 156.402344 161.183594 C 156.4375 155.945312 154.460938 150.441406 150.175781 147.441406 C 146.648438 144.976562 142.105469 144.519531 137.804688 144.621094 C 134.679688 144.710938 129.273438 143.960938 126.417969 145.183594 C 124.15625 146.179688 122.847656 149.933594 122.425781 152.148438 Z M 122.425781 152.148438 "/>
<path style=" stroke:none;fill-rule:nonzero;fill:rgb(20.784314%,97.647059%,14.901961%);fill-opacity:1;" d="M 131.867188 110.777344 C 131.316406 111.351562 130.890625 112.03125 130.613281 112.777344 C 126.058594 123.046875 123.367188 134.046875 122.667969 145.261719 C 122.679688 145.808594 122.554688 146.351562 122.300781 146.835938 C 122.054688 147.15625 121.777344 147.457031 121.476562 147.730469 C 120.367188 149.046875 120.535156 151.007812 121.847656 152.117188 C 121.898438 152.160156 121.949219 152.203125 122.003906 152.242188 C 122.933594 150.492188 125.160156 149.917969 127.136719 149.765625 C 136.609375 149.015625 145.863281 153.425781 155.363281 153.089844 C 154.695312 150.777344 153.730469 148.546875 153.183594 146.203125 C 150.765625 135.789062 156.792969 124.453125 153.097656 114.425781 C 152.359375 112.417969 151.125 110.445312 149.183594 109.5625 C 148.378906 109.238281 147.535156 109.015625 146.675781 108.902344 C 144.273438 108.46875 139.492188 106.613281 137.171875 107.355469 C 136.316406 107.632812 135.980469 108.441406 135.269531 108.925781 C 134.191406 109.613281 132.761719 109.867188 131.867188 110.777344 Z M 131.867188 110.777344 "/>
<path style=" stroke:none;fill-rule:nonzero;fill:rgb(98.431373%,74.509804%,74.509804%);fill-opacity:1;" d="M 263.417969 145.183594 C 260.5625 143.960938 255.15625 144.710938 252.03125 144.621094 C 247.730469 144.519531 243.1875 144.976562 239.660156 147.441406 C 235.371094 150.441406 233.398438 155.945312 233.433594 161.183594 C 233.46875 166.421875 235.226562 171.46875 237.109375 176.359375 C 238.15625 179.117188 239.261719 181.851562 239.625 184.757812 C 239.625 184.757812 202.148438 189.203125 199.882812 191.023438 C 197.621094 192.847656 196.609375 196.496094 198.347656 198.75 C 200.082031 201.003906 254.222656 203.269531 261.351562 201.761719 C 262.597656 201.789062 263.628906 200.808594 263.664062 199.566406 C 264.386719 195.363281 264.964844 191.148438 265.351562 186.90625 C 265.558594 184.71875 265.707031 182.53125 265.859375 180.339844 L 267.480469 157.074219 C 267.660156 155.433594 267.636719 153.78125 267.414062 152.148438 C 266.988281 149.933594 265.679688 146.179688 263.417969 145.183594 Z M 263.417969 145.183594 "/>
<path style=" stroke:none;fill-rule:nonzero;fill:rgb(20.784314%,97.647059%,14.901961%);fill-opacity:1;" d="M 254.566406 108.925781 C 253.859375 108.441406 253.519531 107.632812 252.660156 107.355469 C 250.339844 106.613281 245.5625 108.46875 243.164062 108.902344 C 242.300781 109.015625 241.457031 109.238281 240.652344 109.5625 C 238.710938 110.445312 237.476562 112.417969 236.738281 114.425781 C 233.042969 124.453125 239.070312 135.789062 236.652344 146.203125 C 236.109375 148.546875 235.144531 150.777344 234.472656 153.089844 C 243.972656 153.425781 253.226562 149.015625 262.699219 149.765625 C 264.675781 149.917969 266.902344 150.492188 267.832031 152.242188 C 267.886719 152.203125 267.9375 152.160156 267.992188 152.117188 C 269.304688 151.007812 269.46875 149.046875 268.363281 147.730469 C 268.0625 147.457031 267.785156 147.15625 267.53125 146.835938 C 267.28125 146.351562 267.15625 145.808594 267.167969 145.261719 C 266.46875 134.046875 263.777344 123.046875 259.222656 112.777344 C 258.945312 112.03125 258.519531 111.351562 257.972656 110.777344 C 257.078125 109.867188 255.648438 109.613281 254.566406 108.925781 Z M 254.566406 108.925781 "/>
<path style=" stroke:none;fill-rule:nonzero;fill:rgb(98.431373%,74.509804%,74.509804%);fill-opacity:1;" d="M 195.222656 194.421875 C 195.222656 199.085938 191.4375 202.871094 186.773438 202.871094 C 182.109375 202.871094 178.324219 199.085938 178.324219 194.421875 C 178.324219 189.753906 182.109375 185.96875 186.773438 185.96875 C 191.4375 185.96875 195.222656 189.753906 195.222656 194.421875 Z M 195.222656 194.421875 "/>
<path style=" stroke:none;fill-rule:nonzero;fill:rgb(98.431373%,74.509804%,74.509804%);fill-opacity:1;" d="M 213.925781 194.421875 C 213.925781 199.085938 210.140625 202.871094 205.476562 202.871094 C 200.8125 202.871094 197.03125 199.085938 197.03125 194.421875 C 197.03125 189.753906 200.8125 185.96875 205.476562 185.96875 C 210.140625 185.96875 213.925781 189.753906 213.925781 194.421875 Z M 213.925781 194.421875 "/>
<path style=" stroke:none;fill-rule:nonzero;fill:rgb(24.705882%,23.921569%,33.72549%);fill-opacity:1;" d="M 257.617188 213.464844 L 141.570312 213.464844 C 138.75 213.460938 136.464844 211.171875 136.460938 208.351562 L 136.460938 137.917969 C 136.464844 135.09375 138.75 132.808594 141.570312 132.804688 L 257.617188 132.804688 C 260.4375 132.808594 262.722656 135.09375 262.726562 137.917969 L 262.726562 208.351562 C 262.722656 211.171875 260.4375 213.460938 257.617188 213.464844 Z M 257.617188 213.464844 "/>
<path style=" stroke:none;fill-rule:nonzero;fill:rgb(100%,100%,100%);fill-opacity:1;" d="M 202.691406 173.132812 C 202.691406 175 201.179688 176.515625 199.3125 176.515625 C 197.445312 176.515625 195.929688 175 195.929688 173.132812 C 195.929688 171.265625 197.445312 169.75 199.3125 169.75 C 201.179688 169.75 202.691406 171.265625 202.691406 173.132812 Z M 202.691406 173.132812 "/>
<path style=" stroke:none;fill-rule:nonzero;fill:rgb(94.509804%,94.509804%,94.509804%);fill-opacity:1;" d="M 389.476562 199.257812 L 0.359375 199.257812 L 0.359375 211.21875 L 23.375 211.21875 L 23.375 214 L 366.472656 214 L 366.472656 211.21875 L 389.476562 211.21875 Z M 389.476562 199.257812 "/>
<path style=" stroke:none;fill-rule:nonzero;fill:rgb(20.784314%,97.647059%,14.901961%);fill-opacity:1;" d="M 167.261719 55.628906 C 162.234375 55.628906 158.15625 51.214844 158.15625 45.777344 L 158.15625 40.851562 C 158.15625 35.414062 162.234375 31.003906 167.261719 31.003906 Z M 167.261719 55.628906 "/>
<path style=" stroke:none;fill-rule:nonzero;fill:rgb(20.784314%,97.647059%,14.901961%);fill-opacity:1;" d="M 225.378906 31.003906 C 230.40625 31.003906 234.484375 35.414062 234.484375 40.851562 L 234.484375 45.777344 C 234.484375 51.214844 230.40625 55.628906 225.378906 55.628906 Z M 225.378906 31.003906 "/>
<path style=" stroke:none;fill-rule:nonzero;fill:rgb(20.784314%,97.647059%,14.901961%);fill-opacity:1;" d="M 230.152344 41.625 L 228.707031 41.625 C 228.707031 21.808594 213.796875 5.683594 195.476562 5.683594 C 177.15625 5.683594 162.25 21.808594 162.25 41.625 L 160.808594 41.625 C 160.808594 20.945312 176.359375 4.121094 195.476562 4.121094 C 214.59375 4.121094 230.152344 20.945312 230.152344 41.625 Z M 230.152344 41.625 "/>
</g>
</svg>
