<?xml version="1.0" encoding="UTF-8"?>
<svg xmlns="http://www.w3.org/2000/svg" xmlns:xlink="http://www.w3.org/1999/xlink" width="400px" height="312px" viewBox="0 0 400 312" version="1.1">
<defs>
<filter id="alpha" filterUnits="objectBoundingBox" x="0%" y="0%" width="100%" height="100%">
  <feColorMatrix type="matrix" in="SourceGraphic" values="0 0 0 0 1 0 0 0 0 1 0 0 0 0 1 0 0 0 1 0"/>
</filter>
<mask id="mask0">
  <g filter="url(#alpha)">
<rect x="0" y="0" width="400" height="312" style="fill:rgb(0%,0%,0%);fill-opacity:0.2;stroke:none;"/>
  </g>
</mask>
<clipPath id="clip1">
  <rect x="0" y="0" width="400" height="312"/>
</clipPath>
<g id="surface5" clip-path="url(#clip1)">
<path style=" stroke:none;fill-rule:nonzero;fill:rgb(0%,0%,0%);fill-opacity:1;" d="M 164.324219 256.515625 L 159.726562 238.753906 L 155.664062 254.078125 Z M 164.324219 256.515625 "/>
</g>
<mask id="mask1">
  <g filter="url(#alpha)">
<rect x="0" y="0" width="400" height="312" style="fill:rgb(0%,0%,0%);fill-opacity:0.2;stroke:none;"/>
  </g>
</mask>
<clipPath id="clip2">
  <rect x="0" y="0" width="400" height="312"/>
</clipPath>
<g id="surface8" clip-path="url(#clip2)">
<path style=" stroke:none;fill-rule:nonzero;fill:rgb(0%,0%,0%);fill-opacity:1;" d="M 41.941406 248.828125 C 41.859375 247.421875 41.765625 245.972656 41.65625 244.460938 C 47.144531 230.746094 194.417969 255.027344 196.902344 270.933594 C 196.894531 272.390625 196.832031 273.804688 196.726562 275.1875 C 190.710938 259.488281 50.796875 236.410156 41.941406 248.828125 Z M 41.941406 248.828125 "/>
</g>
</defs>
<g id="surface1">
<path style=" stroke:none;fill-rule:nonzero;fill:rgb(20.784314%,97.647059%,14.901961%);fill-opacity:1;" d="M 332.546875 134.617188 C 332.546875 134.617188 323.144531 139.851562 325.851562 145.808594 C 328.558594 151.765625 366.988281 146.890625 366.988281 146.890625 C 366.988281 146.890625 364.28125 138.765625 359.410156 137.140625 C 354.539062 135.515625 332.546875 134.617188 332.546875 134.617188 Z M 332.546875 134.617188 "/>
<path style=" stroke:none;fill-rule:nonzero;fill:rgb(80%,80%,80%);fill-opacity:1;" d="M 328.878906 136.011719 C 330.769531 134.785156 332.871094 133.914062 335.078125 133.449219 C 342.433594 131.664062 350.132812 131.90625 357.363281 134.144531 L 357.230469 134.035156 C 360.3125 135.664062 363.015625 137.921875 365.171875 140.660156 Z M 328.878906 136.011719 "/>
<path style=" stroke:none;fill-rule:nonzero;fill:rgb(80%,80%,80%);fill-opacity:1;" d="M 370.515625 161.636719 C 370.386719 163.582031 370.257812 165.523438 370.125 167.464844 C 369.949219 171.53125 369.503906 175.578125 368.800781 179.585938 C 368.140625 182.941406 367.089844 186.265625 365.210938 189.121094 C 363.332031 191.96875 360.546875 194.324219 357.246094 195.191406 C 355.21875 195.679688 353.109375 195.726562 351.0625 195.328125 C 347.203125 193.132812 344.589844 195.941406 348.441406 198.792969 C 349.316406 199.441406 350.226562 200.039062 351.164062 200.585938 L 352.914062 227.601562 L 320.4375 220.558594 L 326.777344 184.625 C 325.804688 183.742188 324.917969 182.773438 324.125 181.726562 C 320.492188 176.902344 319.242188 170.613281 319.480469 164.578125 C 319.722656 158.539062 321.332031 152.648438 322.925781 146.828125 C 323.335938 145.246094 323.824219 143.691406 324.398438 142.164062 C 325.109375 142.457031 325.828125 142.722656 326.558594 142.941406 C 331.230469 144.363281 336.195312 144.476562 341.078125 144.472656 C 349.765625 144.464844 358.441406 144.125 367.105469 143.453125 C 369.097656 146.734375 370.308594 150.429688 370.640625 154.253906 C 370.78125 156.714844 370.738281 159.183594 370.515625 161.636719 Z M 370.515625 161.636719 "/>
<path style=" stroke:none;fill-rule:nonzero;fill:rgb(90.196078%,90.196078%,90.196078%);fill-opacity:1;" d="M 231.617188 234.964844 L 281.613281 239.40625 L 282.148438 239.453125 L 282.148438 25.960938 C 281.96875 25.835938 281.792969 25.714844 281.613281 25.589844 C 271.191406 18.292969 259.921875 12.300781 248.046875 7.746094 L 245.492188 43.007812 L 245.261719 46.238281 L 242.734375 81.207031 L 241.953125 91.964844 L 231.707031 233.71875 Z M 231.617188 234.964844 "/>
<path style=" stroke:none;fill-rule:nonzero;fill:rgb(90.196078%,90.196078%,90.196078%);fill-opacity:1;" d="M 107.972656 21.984375 C 107.617188 22.214844 107.257812 22.441406 106.902344 22.679688 L 106.902344 239.453125 L 107.972656 239.355469 L 157.429688 234.964844 L 157.335938 233.71875 L 147.089844 91.964844 L 146.3125 81.207031 L 143.785156 46.238281 L 143.550781 43.007812 L 140.871094 6.027344 C 129.316406 10.035156 118.273438 15.394531 107.972656 21.984375 Z M 107.972656 21.984375 "/>
<path style=" stroke:none;fill-rule:nonzero;fill:rgb(90.196078%,90.196078%,90.196078%);fill-opacity:1;" d="M 106.902344 22.679688 C 106.179688 23.144531 105.460938 23.621094 104.753906 24.105469 L 104.753906 242.410156 C 104.753906 247.867188 107.984375 252.4375 112.304688 253.601562 C 113.007812 253.792969 113.738281 253.890625 114.46875 253.890625 L 275.117188 253.890625 C 275.847656 253.890625 276.574219 253.792969 277.277344 253.601562 C 278.882812 253.15625 280.339844 252.285156 281.488281 251.078125 C 283.683594 248.730469 284.882812 245.625 284.832031 242.410156 L 284.832031 27.902344 C 283.945312 27.246094 283.054688 26.597656 282.148438 25.960938 C 281.96875 25.835938 281.792969 25.714844 281.613281 25.589844 L 281.613281 242.410156 C 281.613281 243.113281 281.53125 243.816406 281.363281 244.496094 C 280.601562 247.71875 278.082031 250.082031 275.117188 250.082031 L 114.46875 250.082031 C 110.886719 250.082031 107.972656 246.640625 107.972656 242.410156 L 107.972656 21.984375 C 107.617188 22.214844 107.257812 22.441406 106.902344 22.679688 Z M 106.902344 22.679688 "/>
<path style=" stroke:none;fill-rule:nonzero;fill:rgb(90.196078%,90.196078%,90.196078%);fill-opacity:1;" d="M 106.363281 43.011719 L 283.222656 43.011719 L 283.222656 46.238281 L 106.363281 46.238281 Z M 106.363281 43.011719 "/>
<path style=" stroke:none;fill-rule:nonzero;fill:rgb(90.196078%,90.196078%,90.196078%);fill-opacity:1;" d="M 229.054688 1.835938 C 227.984375 1.570312 226.910156 1.320312 225.828125 1.089844 L 225.828125 88.734375 L 229.054688 88.734375 Z M 229.054688 1.835938 "/>
<path style=" stroke:none;fill-rule:nonzero;fill:rgb(90.196078%,90.196078%,90.196078%);fill-opacity:1;" d="M 163.757812 0 C 162.679688 0.199219 161.601562 0.40625 160.53125 0.628906 L 160.53125 88.734375 L 163.757812 88.734375 Z M 163.757812 0 "/>
<path style=" stroke:none;fill-rule:nonzero;fill:rgb(90.196078%,90.196078%,90.196078%);fill-opacity:1;" d="M 71.6875 248.242188 C 71.683594 250.09375 72.039062 251.929688 72.730469 253.644531 C 72.996094 254.3125 73.3125 254.957031 73.679688 255.574219 C 74.148438 256.378906 74.695312 257.136719 75.3125 257.839844 C 78.0625 260.976562 82.03125 262.773438 86.203125 262.773438 L 298.007812 262.773438 C 306.027344 262.773438 312.523438 256.269531 312.523438 248.246094 C 312.523438 240.222656 306.027344 233.71875 298.007812 233.71875 L 86.203125 233.71875 C 78.191406 233.726562 71.695312 240.222656 71.6875 248.242188 Z M 71.6875 248.242188 "/>
<path style=" stroke:none;fill-rule:nonzero;fill:rgb(90.196078%,90.196078%,90.196078%);fill-opacity:1;" d="M 282.148438 91.964844 L 106.363281 91.964844 L 106.363281 81.207031 L 282.148438 81.207031 Z M 282.148438 91.964844 "/>
<path style=" stroke:none;fill-rule:nonzero;fill:rgb(90.196078%,90.196078%,90.196078%);fill-opacity:1;" d="M 201.78125 83.894531 L 186.730469 83.894531 C 186.730469 80.628906 189.375 77.976562 192.640625 77.976562 L 195.867188 77.976562 C 199.132812 77.976562 201.78125 80.628906 201.78125 83.894531 Z M 201.78125 83.894531 "/>
<path style=" stroke:none;fill-rule:nonzero;fill:rgb(24.705882%,23.921569%,33.72549%);fill-opacity:1;" d="M 0 256.539062 C 4.703125 262.113281 9.789062 267.355469 15.21875 272.21875 L 384.683594 272.21875 C 390.113281 267.355469 395.199219 262.113281 399.902344 256.539062 Z M 0 256.539062 "/>
<path style=" stroke:none;fill-rule:nonzero;fill:rgb(18.431373%,18.039216%,25.490196%);fill-opacity:1;" d="M 100.222656 204.101562 L 100.222656 259.652344 L 139.113281 259.652344 L 139.113281 204.101562 C 139.113281 203.28125 138.582031 202.554688 137.796875 202.3125 C 137.617188 202.253906 137.429688 202.222656 137.238281 202.226562 L 102.101562 202.226562 C 101.601562 202.226562 101.125 202.421875 100.773438 202.773438 C 100.421875 203.125 100.222656 203.601562 100.222656 204.101562 Z M 115.398438 223.1875 C 115.421875 220.910156 117.273438 219.070312 119.550781 219.070312 C 121.828125 219.070312 123.679688 220.910156 123.703125 223.1875 L 123.703125 229.632812 C 123.691406 231.921875 121.835938 233.769531 119.550781 233.769531 C 117.265625 233.769531 115.410156 231.921875 115.398438 229.632812 Z M 115.398438 223.1875 "/>
<path style=" stroke:none;fill-rule:nonzero;fill:rgb(24.705882%,23.921569%,33.72549%);fill-opacity:1;" d="M 100.101562 257.875 L 100.101562 263.234375 C 100.105469 263.8125 100.570312 264.28125 101.148438 264.285156 L 138.1875 264.285156 C 138.765625 264.28125 139.230469 263.8125 139.230469 263.234375 L 139.230469 257.875 Z M 100.101562 257.875 "/>
<path style=" stroke:none;fill-rule:nonzero;fill:rgb(24.705882%,23.921569%,33.72549%);fill-opacity:1;" d="M 39.042969 120.402344 L 39.042969 221.835938 C 39.042969 224.527344 41.222656 226.707031 43.914062 226.710938 L 194.117188 226.710938 C 196.804688 226.707031 198.984375 224.527344 198.988281 221.835938 L 198.988281 120.402344 C 198.980469 117.710938 196.804688 115.535156 194.117188 115.53125 L 43.914062 115.53125 C 41.226562 115.535156 39.046875 117.710938 39.042969 120.402344 Z M 39.042969 120.402344 "/>
<path style=" stroke:none;fill-rule:nonzero;fill:rgb(20.784314%,97.647059%,14.901961%);fill-opacity:1;" d="M 42.566406 121.664062 L 42.566406 220.582031 C 42.566406 222.019531 43.730469 223.1875 45.167969 223.1875 L 192.867188 223.1875 C 194.304688 223.1875 195.46875 222.019531 195.46875 220.582031 L 195.46875 121.664062 C 195.46875 120.222656 194.304688 119.054688 192.867188 119.054688 L 45.167969 119.054688 C 43.730469 119.054688 42.566406 120.222656 42.566406 121.664062 Z M 42.566406 121.664062 "/>
<path style=" stroke:none;fill-rule:nonzero;fill:rgb(18.431373%,18.039216%,25.490196%);fill-opacity:1;" d="M 72.683594 265.546875 C 72.988281 265.929688 73.449219 266.152344 73.9375 266.148438 L 161.808594 266.148438 C 162.292969 266.148438 162.753906 265.925781 163.0625 265.550781 C 163.367188 265.171875 163.488281 264.675781 163.386719 264.199219 L 162.023438 257.714844 C 161.910156 257.175781 161.53125 256.734375 161.015625 256.539062 C 160.835938 256.46875 160.640625 256.429688 160.445312 256.429688 L 75.296875 256.429688 C 75.101562 256.429688 74.90625 256.46875 74.722656 256.539062 C 74.210938 256.734375 73.832031 257.175781 73.714844 257.714844 L 72.351562 264.199219 C 72.253906 264.675781 72.375 265.167969 72.683594 265.546875 Z M 72.683594 265.546875 "/>
<path style=" stroke:none;fill-rule:nonzero;fill:rgb(24.705882%,23.921569%,33.72549%);fill-opacity:1;" d="M 159.554688 259.222656 L 157.378906 259.222656 C 157.230469 259.222656 157.113281 259.105469 157.113281 258.957031 L 157.113281 257.863281 C 157.113281 257.714844 157.230469 257.597656 157.378906 257.597656 L 159.554688 257.597656 C 159.703125 257.597656 159.820312 257.714844 159.820312 257.863281 L 159.820312 258.957031 C 159.820312 259.105469 159.703125 259.222656 159.554688 259.222656 Z M 159.554688 259.222656 "/>
<path style=" stroke:none;fill-rule:nonzero;fill:rgb(24.705882%,23.921569%,33.72549%);fill-opacity:1;" d="M 154.144531 259.222656 L 151.964844 259.222656 C 151.820312 259.222656 151.699219 259.105469 151.699219 258.957031 L 151.699219 257.863281 C 151.699219 257.714844 151.820312 257.597656 151.964844 257.597656 L 154.144531 257.597656 C 154.289062 257.597656 154.40625 257.714844 154.40625 257.863281 L 154.40625 258.957031 C 154.40625 259.105469 154.289062 259.222656 154.144531 259.222656 Z M 154.144531 259.222656 "/>
<path style=" stroke:none;fill-rule:nonzero;fill:rgb(24.705882%,23.921569%,33.72549%);fill-opacity:1;" d="M 148.730469 259.222656 L 146.550781 259.222656 C 146.40625 259.222656 146.289062 259.105469 146.289062 258.957031 L 146.289062 257.863281 C 146.289062 257.714844 146.40625 257.597656 146.550781 257.597656 L 148.730469 257.597656 C 148.875 257.597656 148.996094 257.714844 148.996094 257.863281 L 148.996094 258.957031 C 148.996094 259.105469 148.875 259.222656 148.730469 259.222656 Z M 148.730469 259.222656 "/>
<path style=" stroke:none;fill-rule:nonzero;fill:rgb(24.705882%,23.921569%,33.72549%);fill-opacity:1;" d="M 143.316406 259.222656 L 141.140625 259.222656 C 140.992188 259.222656 140.875 259.105469 140.875 258.957031 L 140.875 257.863281 C 140.875 257.714844 140.992188 257.597656 141.140625 257.597656 L 143.316406 257.597656 C 143.464844 257.597656 143.582031 257.714844 143.582031 257.863281 L 143.582031 258.957031 C 143.582031 259.105469 143.464844 259.222656 143.316406 259.222656 Z M 143.316406 259.222656 "/>
<path style=" stroke:none;fill-rule:nonzero;fill:rgb(24.705882%,23.921569%,33.72549%);fill-opacity:1;" d="M 137.90625 259.222656 L 135.726562 259.222656 C 135.582031 259.222656 135.460938 259.105469 135.460938 258.957031 L 135.460938 257.863281 C 135.460938 257.714844 135.582031 257.597656 135.726562 257.597656 L 137.90625 257.597656 C 138.050781 257.597656 138.167969 257.714844 138.167969 257.863281 L 138.167969 258.957031 C 138.167969 259.105469 138.050781 259.222656 137.90625 259.222656 Z M 137.90625 259.222656 "/>
<path style=" stroke:none;fill-rule:nonzero;fill:rgb(24.705882%,23.921569%,33.72549%);fill-opacity:1;" d="M 132.492188 259.222656 L 130.3125 259.222656 C 130.167969 259.222656 130.050781 259.105469 130.050781 258.957031 L 130.050781 257.863281 C 130.050781 257.714844 130.167969 257.597656 130.3125 257.597656 L 132.492188 257.597656 C 132.636719 257.597656 132.757812 257.714844 132.757812 257.863281 L 132.757812 258.957031 C 132.757812 259.105469 132.636719 259.222656 132.492188 259.222656 Z M 132.492188 259.222656 "/>
<path style=" stroke:none;fill-rule:nonzero;fill:rgb(24.705882%,23.921569%,33.72549%);fill-opacity:1;" d="M 127.078125 259.222656 L 124.902344 259.222656 C 124.753906 259.222656 124.636719 259.105469 124.636719 258.957031 L 124.636719 257.863281 C 124.636719 257.714844 124.753906 257.597656 124.902344 257.597656 L 127.078125 257.597656 C 127.226562 257.597656 127.34375 257.714844 127.34375 257.863281 L 127.34375 258.957031 C 127.34375 259.105469 127.226562 259.222656 127.078125 259.222656 Z M 127.078125 259.222656 "/>
<path style=" stroke:none;fill-rule:nonzero;fill:rgb(24.705882%,23.921569%,33.72549%);fill-opacity:1;" d="M 121.667969 259.222656 L 119.488281 259.222656 C 119.34375 259.222656 119.222656 259.105469 119.222656 258.957031 L 119.222656 257.863281 C 119.222656 257.714844 119.34375 257.597656 119.488281 257.597656 L 121.667969 257.597656 C 121.8125 257.597656 121.929688 257.714844 121.929688 257.863281 L 121.929688 258.957031 C 121.929688 259.105469 121.8125 259.222656 121.667969 259.222656 Z M 121.667969 259.222656 "/>
<path style=" stroke:none;fill-rule:nonzero;fill:rgb(24.705882%,23.921569%,33.72549%);fill-opacity:1;" d="M 116.253906 259.222656 L 114.074219 259.222656 C 113.929688 259.222656 113.8125 259.105469 113.8125 258.957031 L 113.8125 257.863281 C 113.8125 257.714844 113.929688 257.597656 114.074219 257.597656 L 116.253906 257.597656 C 116.398438 257.597656 116.519531 257.714844 116.519531 257.863281 L 116.519531 258.957031 C 116.519531 259.105469 116.398438 259.222656 116.253906 259.222656 Z M 116.253906 259.222656 "/>
<path style=" stroke:none;fill-rule:nonzero;fill:rgb(24.705882%,23.921569%,33.72549%);fill-opacity:1;" d="M 110.839844 259.222656 L 108.664062 259.222656 C 108.515625 259.222656 108.398438 259.105469 108.398438 258.957031 L 108.398438 257.863281 C 108.398438 257.714844 108.515625 257.597656 108.664062 257.597656 L 110.839844 257.597656 C 110.988281 257.597656 111.105469 257.714844 111.105469 257.863281 L 111.105469 258.957031 C 111.105469 259.105469 110.988281 259.222656 110.839844 259.222656 Z M 110.839844 259.222656 "/>
<path style=" stroke:none;fill-rule:nonzero;fill:rgb(24.705882%,23.921569%,33.72549%);fill-opacity:1;" d="M 105.429688 259.222656 L 103.25 259.222656 C 103.105469 259.222656 102.984375 259.105469 102.984375 258.957031 L 102.984375 257.863281 C 102.984375 257.714844 103.105469 257.597656 103.25 257.597656 L 105.429688 257.597656 C 105.574219 257.597656 105.691406 257.714844 105.691406 257.863281 L 105.691406 258.957031 C 105.691406 259.105469 105.574219 259.222656 105.429688 259.222656 Z M 105.429688 259.222656 "/>
<path style=" stroke:none;fill-rule:nonzero;fill:rgb(24.705882%,23.921569%,33.72549%);fill-opacity:1;" d="M 100.015625 259.222656 L 97.835938 259.222656 C 97.691406 259.222656 97.574219 259.105469 97.574219 258.957031 L 97.574219 257.863281 C 97.574219 257.714844 97.691406 257.597656 97.835938 257.597656 L 100.015625 257.597656 C 100.160156 257.597656 100.28125 257.714844 100.28125 257.863281 L 100.28125 258.957031 C 100.28125 259.105469 100.160156 259.222656 100.015625 259.222656 Z M 100.015625 259.222656 "/>
<path style=" stroke:none;fill-rule:nonzero;fill:rgb(24.705882%,23.921569%,33.72549%);fill-opacity:1;" d="M 94.601562 259.222656 L 92.425781 259.222656 C 92.277344 259.222656 92.160156 259.105469 92.160156 258.957031 L 92.160156 257.863281 C 92.160156 257.714844 92.277344 257.597656 92.425781 257.597656 L 94.601562 257.597656 C 94.75 257.597656 94.867188 257.714844 94.867188 257.863281 L 94.867188 258.957031 C 94.867188 259.105469 94.75 259.222656 94.601562 259.222656 Z M 94.601562 259.222656 "/>
<path style=" stroke:none;fill-rule:nonzero;fill:rgb(24.705882%,23.921569%,33.72549%);fill-opacity:1;" d="M 89.191406 259.222656 L 87.011719 259.222656 C 86.867188 259.222656 86.746094 259.105469 86.746094 258.957031 L 86.746094 257.863281 C 86.746094 257.714844 86.867188 257.597656 87.011719 257.597656 L 89.191406 257.597656 C 89.335938 257.597656 89.453125 257.714844 89.453125 257.863281 L 89.453125 258.957031 C 89.453125 259.105469 89.335938 259.222656 89.191406 259.222656 Z M 89.191406 259.222656 "/>
<path style=" stroke:none;fill-rule:nonzero;fill:rgb(24.705882%,23.921569%,33.72549%);fill-opacity:1;" d="M 83.777344 259.222656 L 81.597656 259.222656 C 81.453125 259.222656 81.335938 259.105469 81.335938 258.957031 L 81.335938 257.863281 C 81.335938 257.714844 81.453125 257.597656 81.597656 257.597656 L 83.777344 257.597656 C 83.921875 257.597656 84.042969 257.714844 84.042969 257.863281 L 84.042969 258.957031 C 84.042969 259.105469 83.921875 259.222656 83.777344 259.222656 Z M 83.777344 259.222656 "/>
<path style=" stroke:none;fill-rule:nonzero;fill:rgb(24.705882%,23.921569%,33.72549%);fill-opacity:1;" d="M 78.363281 259.222656 L 76.1875 259.222656 C 76.039062 259.222656 75.921875 259.105469 75.921875 258.957031 L 75.921875 257.863281 C 75.921875 257.714844 76.039062 257.597656 76.1875 257.597656 L 78.363281 257.597656 C 78.511719 257.597656 78.628906 257.714844 78.628906 257.863281 L 78.628906 258.957031 C 78.628906 259.105469 78.511719 259.222656 78.363281 259.222656 Z M 78.363281 259.222656 "/>
<path style=" stroke:none;fill-rule:nonzero;fill:rgb(24.705882%,23.921569%,33.72549%);fill-opacity:1;" d="M 159.621094 261.929688 L 157.441406 261.929688 C 157.296875 261.929688 157.175781 261.8125 157.175781 261.667969 L 157.175781 260.570312 C 157.175781 260.425781 157.296875 260.304688 157.441406 260.304688 L 159.621094 260.304688 C 159.765625 260.304688 159.882812 260.425781 159.882812 260.570312 L 159.882812 261.667969 C 159.882812 261.8125 159.765625 261.929688 159.621094 261.929688 Z M 159.621094 261.929688 "/>
<path style=" stroke:none;fill-rule:nonzero;fill:rgb(24.705882%,23.921569%,33.72549%);fill-opacity:1;" d="M 154.207031 261.929688 L 152.027344 261.929688 C 151.882812 261.929688 151.765625 261.8125 151.765625 261.667969 L 151.765625 260.570312 C 151.765625 260.425781 151.882812 260.304688 152.027344 260.304688 L 154.207031 260.304688 C 154.351562 260.304688 154.472656 260.425781 154.472656 260.570312 L 154.472656 261.667969 C 154.472656 261.8125 154.351562 261.929688 154.207031 261.929688 Z M 154.207031 261.929688 "/>
<path style=" stroke:none;fill-rule:nonzero;fill:rgb(24.705882%,23.921569%,33.72549%);fill-opacity:1;" d="M 148.792969 261.929688 L 146.617188 261.929688 C 146.46875 261.929688 146.351562 261.8125 146.351562 261.667969 L 146.351562 260.570312 C 146.351562 260.425781 146.46875 260.304688 146.617188 260.304688 L 148.792969 260.304688 C 148.941406 260.304688 149.058594 260.425781 149.058594 260.570312 L 149.058594 261.667969 C 149.058594 261.8125 148.941406 261.929688 148.792969 261.929688 Z M 148.792969 261.929688 "/>
<path style=" stroke:none;fill-rule:nonzero;fill:rgb(24.705882%,23.921569%,33.72549%);fill-opacity:1;" d="M 143.382812 261.929688 L 141.203125 261.929688 C 141.058594 261.929688 140.9375 261.8125 140.9375 261.667969 L 140.9375 260.570312 C 140.9375 260.425781 141.058594 260.304688 141.203125 260.304688 L 143.382812 260.304688 C 143.527344 260.304688 143.644531 260.425781 143.644531 260.570312 L 143.644531 261.667969 C 143.644531 261.8125 143.527344 261.929688 143.382812 261.929688 Z M 143.382812 261.929688 "/>
<path style=" stroke:none;fill-rule:nonzero;fill:rgb(24.705882%,23.921569%,33.72549%);fill-opacity:1;" d="M 137.96875 261.929688 L 135.789062 261.929688 C 135.644531 261.929688 135.527344 261.8125 135.527344 261.667969 L 135.527344 260.570312 C 135.527344 260.425781 135.644531 260.304688 135.789062 260.304688 L 137.96875 260.304688 C 138.113281 260.304688 138.234375 260.425781 138.234375 260.570312 L 138.234375 261.667969 C 138.234375 261.8125 138.113281 261.929688 137.96875 261.929688 Z M 137.96875 261.929688 "/>
<path style=" stroke:none;fill-rule:nonzero;fill:rgb(24.705882%,23.921569%,33.72549%);fill-opacity:1;" d="M 132.554688 261.929688 L 130.378906 261.929688 C 130.230469 261.929688 130.113281 261.8125 130.113281 261.667969 L 130.113281 260.570312 C 130.113281 260.425781 130.230469 260.304688 130.378906 260.304688 L 132.554688 260.304688 C 132.703125 260.304688 132.820312 260.425781 132.820312 260.570312 L 132.820312 261.667969 C 132.820312 261.8125 132.703125 261.929688 132.554688 261.929688 Z M 132.554688 261.929688 "/>
<path style=" stroke:none;fill-rule:nonzero;fill:rgb(24.705882%,23.921569%,33.72549%);fill-opacity:1;" d="M 127.144531 261.929688 L 124.964844 261.929688 C 124.820312 261.929688 124.699219 261.8125 124.699219 261.667969 L 124.699219 260.570312 C 124.699219 260.425781 124.820312 260.304688 124.964844 260.304688 L 127.144531 260.304688 C 127.289062 260.304688 127.40625 260.425781 127.40625 260.570312 L 127.40625 261.667969 C 127.40625 261.8125 127.289062 261.929688 127.144531 261.929688 Z M 127.144531 261.929688 "/>
<path style=" stroke:none;fill-rule:nonzero;fill:rgb(24.705882%,23.921569%,33.72549%);fill-opacity:1;" d="M 121.730469 261.929688 L 119.550781 261.929688 C 119.40625 261.929688 119.289062 261.8125 119.289062 261.667969 L 119.289062 260.570312 C 119.289062 260.425781 119.40625 260.304688 119.550781 260.304688 L 121.730469 260.304688 C 121.875 260.304688 121.996094 260.425781 121.996094 260.570312 L 121.996094 261.667969 C 121.996094 261.8125 121.875 261.929688 121.730469 261.929688 Z M 121.730469 261.929688 "/>
<path style=" stroke:none;fill-rule:nonzero;fill:rgb(24.705882%,23.921569%,33.72549%);fill-opacity:1;" d="M 116.316406 261.929688 L 114.140625 261.929688 C 113.992188 261.929688 113.875 261.8125 113.875 261.667969 L 113.875 260.570312 C 113.875 260.425781 113.992188 260.304688 114.140625 260.304688 L 116.316406 260.304688 C 116.464844 260.304688 116.582031 260.425781 116.582031 260.570312 L 116.582031 261.667969 C 116.582031 261.8125 116.464844 261.929688 116.316406 261.929688 Z M 116.316406 261.929688 "/>
<path style=" stroke:none;fill-rule:nonzero;fill:rgb(24.705882%,23.921569%,33.72549%);fill-opacity:1;" d="M 110.90625 261.929688 L 108.726562 261.929688 C 108.582031 261.929688 108.460938 261.8125 108.460938 261.667969 L 108.460938 260.570312 C 108.460938 260.425781 108.582031 260.304688 108.726562 260.304688 L 110.90625 260.304688 C 111.050781 260.304688 111.167969 260.425781 111.167969 260.570312 L 111.167969 261.667969 C 111.167969 261.8125 111.050781 261.929688 110.90625 261.929688 Z M 110.90625 261.929688 "/>
<path style=" stroke:none;fill-rule:nonzero;fill:rgb(24.705882%,23.921569%,33.72549%);fill-opacity:1;" d="M 105.492188 261.929688 L 103.3125 261.929688 C 103.167969 261.929688 103.050781 261.8125 103.050781 261.667969 L 103.050781 260.570312 C 103.050781 260.425781 103.167969 260.304688 103.3125 260.304688 L 105.492188 260.304688 C 105.636719 260.304688 105.757812 260.425781 105.757812 260.570312 L 105.757812 261.667969 C 105.757812 261.8125 105.636719 261.929688 105.492188 261.929688 Z M 105.492188 261.929688 "/>
<path style=" stroke:none;fill-rule:nonzero;fill:rgb(24.705882%,23.921569%,33.72549%);fill-opacity:1;" d="M 100.078125 261.929688 L 97.902344 261.929688 C 97.753906 261.929688 97.636719 261.8125 97.636719 261.667969 L 97.636719 260.570312 C 97.636719 260.425781 97.753906 260.304688 97.902344 260.304688 L 100.078125 260.304688 C 100.226562 260.304688 100.34375 260.425781 100.34375 260.570312 L 100.34375 261.667969 C 100.34375 261.8125 100.226562 261.929688 100.078125 261.929688 Z M 100.078125 261.929688 "/>
<path style=" stroke:none;fill-rule:nonzero;fill:rgb(24.705882%,23.921569%,33.72549%);fill-opacity:1;" d="M 94.667969 261.929688 L 92.488281 261.929688 C 92.34375 261.929688 92.226562 261.8125 92.226562 261.667969 L 92.226562 260.570312 C 92.226562 260.425781 92.34375 260.304688 92.488281 260.304688 L 94.667969 260.304688 C 94.8125 260.304688 94.929688 260.425781 94.929688 260.570312 L 94.929688 261.667969 C 94.929688 261.8125 94.8125 261.929688 94.667969 261.929688 Z M 94.667969 261.929688 "/>
<path style=" stroke:none;fill-rule:nonzero;fill:rgb(24.705882%,23.921569%,33.72549%);fill-opacity:1;" d="M 89.253906 261.929688 L 87.078125 261.929688 C 86.929688 261.929688 86.8125 261.8125 86.8125 261.667969 L 86.8125 260.570312 C 86.8125 260.425781 86.929688 260.304688 87.078125 260.304688 L 89.253906 260.304688 C 89.398438 260.304688 89.519531 260.425781 89.519531 260.570312 L 89.519531 261.667969 C 89.519531 261.8125 89.398438 261.929688 89.253906 261.929688 Z M 89.253906 261.929688 "/>
<path style=" stroke:none;fill-rule:nonzero;fill:rgb(24.705882%,23.921569%,33.72549%);fill-opacity:1;" d="M 83.839844 261.929688 L 81.664062 261.929688 C 81.515625 261.929688 81.398438 261.8125 81.398438 261.667969 L 81.398438 260.570312 C 81.398438 260.425781 81.515625 260.304688 81.664062 260.304688 L 83.839844 260.304688 C 83.988281 260.304688 84.105469 260.425781 84.105469 260.570312 L 84.105469 261.667969 C 84.105469 261.8125 83.988281 261.929688 83.839844 261.929688 Z M 83.839844 261.929688 "/>
<path style=" stroke:none;fill-rule:nonzero;fill:rgb(24.705882%,23.921569%,33.72549%);fill-opacity:1;" d="M 78.429688 261.929688 L 76.25 261.929688 C 76.105469 261.929688 75.988281 261.8125 75.988281 261.667969 L 75.988281 260.570312 C 75.988281 260.425781 76.105469 260.304688 76.25 260.304688 L 78.429688 260.304688 C 78.574219 260.304688 78.691406 260.425781 78.691406 260.570312 L 78.691406 261.667969 C 78.691406 261.8125 78.574219 261.929688 78.429688 261.929688 Z M 78.429688 261.929688 "/>
<path style=" stroke:none;fill-rule:nonzero;fill:rgb(24.705882%,23.921569%,33.72549%);fill-opacity:1;" d="M 133.636719 265.179688 L 112.515625 265.179688 C 112.371094 265.179688 112.25 265.0625 112.25 264.917969 L 112.25 263.820312 C 112.25 263.675781 112.371094 263.554688 112.515625 263.554688 L 133.636719 263.554688 C 133.785156 263.554688 133.902344 263.675781 133.902344 263.820312 L 133.902344 264.917969 C 133.902344 265.0625 133.785156 265.179688 133.636719 265.179688 Z M 133.636719 265.179688 "/>
<path style=" stroke:none;fill-rule:nonzero;fill:rgb(24.705882%,23.921569%,33.72549%);fill-opacity:1;" d="M 52.589844 132.679688 L 190.789062 132.679688 C 191.089844 132.671875 191.328125 132.429688 191.328125 132.128906 C 191.328125 131.832031 191.089844 131.585938 190.789062 131.578125 L 52.589844 131.578125 C 52.292969 131.585938 52.054688 131.832031 52.054688 132.128906 C 52.054688 132.429688 52.292969 132.671875 52.589844 132.679688 Z M 52.589844 132.679688 "/>
<path style=" stroke:none;fill-rule:nonzero;fill:rgb(24.705882%,23.921569%,33.72549%);fill-opacity:1;" d="M 184.605469 125.476562 C 184.605469 123.65625 183.160156 122.179688 181.382812 122.179688 C 179.605469 122.179688 178.164062 123.65625 178.164062 125.476562 C 178.164062 127.296875 179.605469 128.769531 181.382812 128.769531 C 183.160156 128.769531 184.605469 127.296875 184.605469 125.476562 Z M 184.605469 125.476562 "/>
<path style=" stroke:none;fill-rule:nonzero;fill:rgb(24.705882%,23.921569%,33.72549%);fill-opacity:1;" d="M 173.476562 125.476562 C 173.476562 123.65625 172.035156 122.179688 170.257812 122.179688 C 168.476562 122.179688 167.035156 123.65625 167.035156 125.476562 C 167.035156 127.296875 168.476562 128.769531 170.257812 128.769531 C 172.035156 128.769531 173.476562 127.296875 173.476562 125.476562 Z M 173.476562 125.476562 "/>
<path style=" stroke:none;fill-rule:nonzero;fill:rgb(24.705882%,23.921569%,33.72549%);fill-opacity:1;" d="M 162.351562 125.476562 C 162.351562 123.65625 160.910156 122.179688 159.128906 122.179688 C 157.351562 122.179688 155.910156 123.65625 155.910156 125.476562 C 155.910156 127.296875 157.351562 128.769531 159.128906 128.769531 C 160.910156 128.769531 162.351562 127.296875 162.351562 125.476562 Z M 162.351562 125.476562 "/>
<path style=" stroke:none;fill-rule:nonzero;fill:rgb(24.705882%,23.921569%,33.72549%);fill-opacity:1;" d="M 58.699219 123.597656 C 58.699219 123.925781 58.964844 124.191406 59.289062 124.191406 L 67.195312 124.191406 C 67.519531 124.1875 67.777344 123.921875 67.777344 123.59375 C 67.777344 123.269531 67.519531 123.003906 67.195312 122.996094 L 59.289062 122.996094 C 58.960938 123 58.699219 123.269531 58.699219 123.597656 Z M 58.699219 123.597656 "/>
<path style=" stroke:none;fill-rule:nonzero;fill:rgb(24.705882%,23.921569%,33.72549%);fill-opacity:1;" d="M 58.699219 125.84375 C 58.699219 126.171875 58.964844 126.441406 59.289062 126.441406 L 67.195312 126.441406 C 67.519531 126.433594 67.777344 126.167969 67.777344 125.84375 C 67.777344 125.515625 67.519531 125.25 67.195312 125.246094 L 59.289062 125.246094 C 58.960938 125.25 58.699219 125.515625 58.699219 125.84375 Z M 58.699219 125.84375 "/>
<path style=" stroke:none;fill-rule:nonzero;fill:rgb(24.705882%,23.921569%,33.72549%);fill-opacity:1;" d="M 58.699219 128.089844 C 58.699219 128.417969 58.960938 128.683594 59.289062 128.6875 L 67.195312 128.6875 C 67.519531 128.679688 67.777344 128.414062 67.777344 128.089844 C 67.777344 127.765625 67.519531 127.5 67.195312 127.492188 L 59.289062 127.492188 C 58.964844 127.492188 58.699219 127.761719 58.699219 128.089844 Z M 58.699219 128.089844 "/>
<path style=" stroke:none;fill-rule:nonzero;fill:rgb(90.196078%,90.196078%,90.196078%);fill-opacity:1;" d="M 58.304688 145.460938 L 61.144531 145.460938 C 62.003906 145.460938 62.703125 146.160156 62.703125 147.019531 C 62.703125 147.882812 62.003906 148.582031 61.144531 148.582031 L 58.304688 148.582031 C 57.441406 148.582031 56.746094 147.882812 56.746094 147.019531 C 56.746094 146.160156 57.441406 145.460938 58.304688 145.460938 Z M 58.304688 145.460938 "/>
<path style=" stroke:none;fill-rule:nonzero;fill:rgb(90.196078%,90.196078%,90.196078%);fill-opacity:1;" d="M 90.78125 145.460938 L 93.621094 145.460938 C 94.480469 145.460938 95.179688 146.160156 95.179688 147.019531 C 95.179688 147.882812 94.480469 148.582031 93.621094 148.582031 L 90.78125 148.582031 C 89.917969 148.582031 89.222656 147.882812 89.222656 147.019531 C 89.222656 146.160156 89.917969 145.460938 90.78125 145.460938 Z M 90.78125 145.460938 "/>
<path style=" stroke:none;fill-rule:nonzero;fill:rgb(90.196078%,90.196078%,90.196078%);fill-opacity:1;" d="M 99.980469 145.460938 L 102.820312 145.460938 C 103.683594 145.460938 104.378906 146.160156 104.378906 147.019531 C 104.378906 147.882812 103.683594 148.582031 102.820312 148.582031 L 99.980469 148.582031 C 99.121094 148.582031 98.421875 147.882812 98.421875 147.019531 C 98.421875 146.160156 99.121094 145.460938 99.980469 145.460938 Z M 99.980469 145.460938 "/>
<path style=" stroke:none;fill-rule:nonzero;fill:rgb(90.196078%,90.196078%,90.196078%);fill-opacity:1;" d="M 67.136719 145.199219 L 84.785156 145.199219 C 85.648438 145.199219 86.34375 145.898438 86.34375 146.761719 C 86.34375 147.621094 85.648438 148.320312 84.785156 148.320312 L 67.136719 148.320312 C 66.277344 148.320312 65.578125 147.621094 65.578125 146.761719 C 65.578125 145.898438 66.277344 145.199219 67.136719 145.199219 Z M 67.136719 145.199219 "/>
<path style=" stroke:none;fill-rule:nonzero;fill:rgb(90.196078%,90.196078%,90.196078%);fill-opacity:1;" d="M 110.4375 145.199219 L 128.085938 145.199219 C 128.949219 145.199219 129.644531 145.898438 129.644531 146.761719 C 129.644531 147.621094 128.949219 148.320312 128.085938 148.320312 L 110.4375 148.320312 C 109.578125 148.320312 108.878906 147.621094 108.878906 146.761719 C 108.878906 145.898438 109.578125 145.199219 110.4375 145.199219 Z M 110.4375 145.199219 "/>
<path style=" stroke:none;fill-rule:nonzero;fill:rgb(90.196078%,90.196078%,90.196078%);fill-opacity:1;" d="M 66.964844 152.503906 L 69.804688 152.503906 C 70.664062 152.503906 71.363281 153.199219 71.363281 154.0625 C 71.363281 154.925781 70.664062 155.621094 69.804688 155.621094 L 66.964844 155.621094 C 66.101562 155.621094 65.40625 154.925781 65.40625 154.0625 C 65.40625 153.199219 66.101562 152.503906 66.964844 152.503906 Z M 66.964844 152.503906 "/>
<path style=" stroke:none;fill-rule:nonzero;fill:rgb(90.196078%,90.196078%,90.196078%);fill-opacity:1;" d="M 99.441406 152.503906 L 102.28125 152.503906 C 103.140625 152.503906 103.839844 153.199219 103.839844 154.0625 C 103.839844 154.925781 103.140625 155.621094 102.28125 155.621094 L 99.441406 155.621094 C 98.578125 155.621094 97.882812 154.925781 97.882812 154.0625 C 97.882812 153.199219 98.578125 152.503906 99.441406 152.503906 Z M 99.441406 152.503906 "/>
<path style=" stroke:none;fill-rule:nonzero;fill:rgb(90.196078%,90.196078%,90.196078%);fill-opacity:1;" d="M 108.640625 152.503906 L 111.480469 152.503906 C 112.34375 152.503906 113.039062 153.199219 113.039062 154.0625 C 113.039062 154.925781 112.34375 155.621094 111.480469 155.621094 L 108.640625 155.621094 C 107.78125 155.621094 107.082031 154.925781 107.082031 154.0625 C 107.082031 153.199219 107.78125 152.503906 108.640625 152.503906 Z M 108.640625 152.503906 "/>
<path style=" stroke:none;fill-rule:nonzero;fill:rgb(90.196078%,90.196078%,90.196078%);fill-opacity:1;" d="M 75.796875 152.242188 L 93.445312 152.242188 C 94.308594 152.242188 95.003906 152.941406 95.003906 153.800781 C 95.003906 154.664062 94.308594 155.363281 93.445312 155.363281 L 75.796875 155.363281 C 74.9375 155.363281 74.238281 154.664062 74.238281 153.800781 C 74.238281 152.941406 74.9375 152.242188 75.796875 152.242188 Z M 75.796875 152.242188 "/>
<path style=" stroke:none;fill-rule:nonzero;fill:rgb(90.196078%,90.196078%,90.196078%);fill-opacity:1;" d="M 119.097656 152.242188 L 136.746094 152.242188 C 137.609375 152.242188 138.308594 152.941406 138.308594 153.800781 C 138.308594 154.664062 137.609375 155.363281 136.746094 155.363281 L 119.097656 155.363281 C 118.238281 155.363281 117.539062 154.664062 117.539062 153.800781 C 117.539062 152.941406 118.238281 152.242188 119.097656 152.242188 Z M 119.097656 152.242188 "/>
<path style=" stroke:none;fill-rule:nonzero;fill:rgb(90.196078%,90.196078%,90.196078%);fill-opacity:1;" d="M 75.625 159.542969 L 78.464844 159.542969 C 79.324219 159.542969 80.023438 160.242188 80.023438 161.105469 C 80.023438 161.964844 79.324219 162.664062 78.464844 162.664062 L 75.625 162.664062 C 74.761719 162.664062 74.066406 161.964844 74.066406 161.105469 C 74.066406 160.242188 74.761719 159.542969 75.625 159.542969 Z M 75.625 159.542969 "/>
<path style=" stroke:none;fill-rule:nonzero;fill:rgb(90.196078%,90.196078%,90.196078%);fill-opacity:1;" d="M 108.101562 159.542969 L 110.941406 159.542969 C 111.800781 159.542969 112.5 160.242188 112.5 161.105469 C 112.5 161.964844 111.800781 162.664062 110.941406 162.664062 L 108.101562 162.664062 C 107.238281 162.664062 106.542969 161.964844 106.542969 161.105469 C 106.542969 160.242188 107.238281 159.542969 108.101562 159.542969 Z M 108.101562 159.542969 "/>
<path style=" stroke:none;fill-rule:nonzero;fill:rgb(90.196078%,90.196078%,90.196078%);fill-opacity:1;" d="M 117.300781 159.542969 L 120.140625 159.542969 C 121.003906 159.542969 121.699219 160.242188 121.699219 161.105469 C 121.699219 161.964844 121.003906 162.664062 120.140625 162.664062 L 117.300781 162.664062 C 116.441406 162.664062 115.742188 161.964844 115.742188 161.105469 C 115.742188 160.242188 116.441406 159.542969 117.300781 159.542969 Z M 117.300781 159.542969 "/>
<path style=" stroke:none;fill-rule:nonzero;fill:rgb(90.196078%,90.196078%,90.196078%);fill-opacity:1;" d="M 84.457031 159.285156 L 102.105469 159.285156 C 102.96875 159.285156 103.664062 159.984375 103.664062 160.84375 C 103.664062 161.707031 102.96875 162.402344 102.105469 162.402344 L 84.457031 162.402344 C 83.597656 162.402344 82.898438 161.707031 82.898438 160.84375 C 82.898438 159.984375 83.597656 159.285156 84.457031 159.285156 Z M 84.457031 159.285156 "/>
<path style=" stroke:none;fill-rule:nonzero;fill:rgb(90.196078%,90.196078%,90.196078%);fill-opacity:1;" d="M 127.757812 159.285156 L 145.410156 159.285156 C 146.269531 159.285156 146.96875 159.984375 146.96875 160.84375 C 146.96875 161.707031 146.269531 162.402344 145.410156 162.402344 L 127.757812 162.402344 C 126.898438 162.402344 126.199219 161.707031 126.199219 160.84375 C 126.199219 159.984375 126.898438 159.285156 127.757812 159.285156 Z M 127.757812 159.285156 "/>
<path style=" stroke:none;fill-rule:nonzero;fill:rgb(90.196078%,90.196078%,90.196078%);fill-opacity:1;" d="M 84.285156 166.585938 L 87.125 166.585938 C 87.984375 166.585938 88.683594 167.285156 88.683594 168.144531 C 88.683594 169.007812 87.984375 169.707031 87.125 169.707031 L 84.285156 169.707031 C 83.421875 169.707031 82.726562 169.007812 82.726562 168.144531 C 82.726562 167.285156 83.421875 166.585938 84.285156 166.585938 Z M 84.285156 166.585938 "/>
<path style=" stroke:none;fill-rule:nonzero;fill:rgb(90.196078%,90.196078%,90.196078%);fill-opacity:1;" d="M 116.761719 166.585938 L 119.601562 166.585938 C 120.460938 166.585938 121.160156 167.285156 121.160156 168.144531 C 121.160156 169.007812 120.460938 169.707031 119.601562 169.707031 L 116.761719 169.707031 C 115.898438 169.707031 115.203125 169.007812 115.203125 168.144531 C 115.203125 167.285156 115.898438 166.585938 116.761719 166.585938 Z M 116.761719 166.585938 "/>
<path style=" stroke:none;fill-rule:nonzero;fill:rgb(90.196078%,90.196078%,90.196078%);fill-opacity:1;" d="M 125.960938 166.585938 L 128.800781 166.585938 C 129.664062 166.585938 130.359375 167.285156 130.359375 168.144531 C 130.359375 169.007812 129.664062 169.707031 128.800781 169.707031 L 125.960938 169.707031 C 125.101562 169.707031 124.402344 169.007812 124.402344 168.144531 C 124.402344 167.285156 125.101562 166.585938 125.960938 166.585938 Z M 125.960938 166.585938 "/>
<path style=" stroke:none;fill-rule:nonzero;fill:rgb(90.196078%,90.196078%,90.196078%);fill-opacity:1;" d="M 93.117188 166.324219 L 110.765625 166.324219 C 111.628906 166.324219 112.324219 167.023438 112.324219 167.886719 C 112.324219 168.746094 111.628906 169.445312 110.765625 169.445312 L 93.117188 169.445312 C 92.257812 169.445312 91.558594 168.746094 91.558594 167.886719 C 91.558594 167.023438 92.257812 166.324219 93.117188 166.324219 Z M 93.117188 166.324219 "/>
<path style=" stroke:none;fill-rule:nonzero;fill:rgb(90.196078%,90.196078%,90.196078%);fill-opacity:1;" d="M 90.78125 194.585938 L 93.621094 194.585938 C 94.480469 194.585938 95.179688 195.285156 95.179688 196.148438 C 95.179688 197.007812 94.480469 197.707031 93.621094 197.707031 L 90.78125 197.707031 C 89.917969 197.707031 89.222656 197.007812 89.222656 196.148438 C 89.222656 195.285156 89.917969 194.585938 90.78125 194.585938 Z M 90.78125 194.585938 "/>
<path style=" stroke:none;fill-rule:nonzero;fill:rgb(90.196078%,90.196078%,90.196078%);fill-opacity:1;" d="M 99.980469 194.585938 L 102.820312 194.585938 C 103.683594 194.585938 104.378906 195.285156 104.378906 196.148438 C 104.378906 197.007812 103.683594 197.707031 102.820312 197.707031 L 99.980469 197.707031 C 99.121094 197.707031 98.421875 197.007812 98.421875 196.148438 C 98.421875 195.285156 99.121094 194.585938 99.980469 194.585938 Z M 99.980469 194.585938 "/>
<path style=" stroke:none;fill-rule:nonzero;fill:rgb(90.196078%,90.196078%,90.196078%);fill-opacity:1;" d="M 110.4375 194.847656 L 128.085938 194.847656 C 128.949219 194.847656 129.644531 195.546875 129.644531 196.40625 C 129.644531 197.269531 128.949219 197.964844 128.085938 197.964844 L 110.4375 197.964844 C 109.578125 197.964844 108.878906 197.269531 108.878906 196.40625 C 108.878906 195.546875 109.578125 194.847656 110.4375 194.847656 Z M 110.4375 194.847656 "/>
<path style=" stroke:none;fill-rule:nonzero;fill:rgb(90.196078%,90.196078%,90.196078%);fill-opacity:1;" d="M 58.304688 194.585938 L 61.144531 194.585938 C 62.003906 194.585938 62.703125 195.285156 62.703125 196.148438 C 62.703125 197.007812 62.003906 197.707031 61.144531 197.707031 L 58.304688 197.707031 C 57.441406 197.707031 56.746094 197.007812 56.746094 196.148438 C 56.746094 195.285156 57.441406 194.585938 58.304688 194.585938 Z M 58.304688 194.585938 "/>
<path style=" stroke:none;fill-rule:nonzero;fill:rgb(90.196078%,90.196078%,90.196078%);fill-opacity:1;" d="M 67.136719 194.847656 L 84.785156 194.847656 C 85.648438 194.847656 86.34375 195.546875 86.34375 196.40625 C 86.34375 197.269531 85.648438 197.964844 84.785156 197.964844 L 67.136719 197.964844 C 66.277344 197.964844 65.578125 197.269531 65.578125 196.40625 C 65.578125 195.546875 66.277344 194.847656 67.136719 194.847656 Z M 67.136719 194.847656 "/>
<path style=" stroke:none;fill-rule:nonzero;fill:rgb(90.196078%,90.196078%,90.196078%);fill-opacity:1;" d="M 66.964844 187.546875 L 69.804688 187.546875 C 70.664062 187.546875 71.363281 188.242188 71.363281 189.105469 C 71.363281 189.964844 70.664062 190.664062 69.804688 190.664062 L 66.964844 190.664062 C 66.101562 190.664062 65.40625 189.964844 65.40625 189.105469 C 65.40625 188.242188 66.101562 187.546875 66.964844 187.546875 Z M 66.964844 187.546875 "/>
<path style=" stroke:none;fill-rule:nonzero;fill:rgb(90.196078%,90.196078%,90.196078%);fill-opacity:1;" d="M 99.441406 187.546875 L 102.28125 187.546875 C 103.140625 187.546875 103.839844 188.242188 103.839844 189.105469 C 103.839844 189.964844 103.140625 190.664062 102.28125 190.664062 L 99.441406 190.664062 C 98.578125 190.664062 97.882812 189.964844 97.882812 189.105469 C 97.882812 188.242188 98.578125 187.546875 99.441406 187.546875 Z M 99.441406 187.546875 "/>
<path style=" stroke:none;fill-rule:nonzero;fill:rgb(90.196078%,90.196078%,90.196078%);fill-opacity:1;" d="M 108.640625 187.546875 L 111.480469 187.546875 C 112.34375 187.546875 113.039062 188.242188 113.039062 189.105469 C 113.039062 189.964844 112.34375 190.664062 111.480469 190.664062 L 108.640625 190.664062 C 107.78125 190.664062 107.082031 189.964844 107.082031 189.105469 C 107.082031 188.242188 107.78125 187.546875 108.640625 187.546875 Z M 108.640625 187.546875 "/>
<path style=" stroke:none;fill-rule:nonzero;fill:rgb(90.196078%,90.196078%,90.196078%);fill-opacity:1;" d="M 75.796875 187.804688 L 93.445312 187.804688 C 94.308594 187.804688 95.003906 188.503906 95.003906 189.363281 C 95.003906 190.226562 94.308594 190.925781 93.445312 190.925781 L 75.796875 190.925781 C 74.9375 190.925781 74.238281 190.226562 74.238281 189.363281 C 74.238281 188.503906 74.9375 187.804688 75.796875 187.804688 Z M 75.796875 187.804688 "/>
<path style=" stroke:none;fill-rule:nonzero;fill:rgb(90.196078%,90.196078%,90.196078%);fill-opacity:1;" d="M 75.625 180.503906 L 78.464844 180.503906 C 79.324219 180.503906 80.023438 181.203125 80.023438 182.0625 C 80.023438 182.925781 79.324219 183.625 78.464844 183.625 L 75.625 183.625 C 74.761719 183.625 74.066406 182.925781 74.066406 182.0625 C 74.066406 181.203125 74.761719 180.503906 75.625 180.503906 Z M 75.625 180.503906 "/>
<path style=" stroke:none;fill-rule:nonzero;fill:rgb(90.196078%,90.196078%,90.196078%);fill-opacity:1;" d="M 108.101562 180.503906 L 110.941406 180.503906 C 111.800781 180.503906 112.5 181.203125 112.5 182.0625 C 112.5 182.925781 111.800781 183.625 110.941406 183.625 L 108.101562 183.625 C 107.238281 183.625 106.542969 182.925781 106.542969 182.0625 C 106.542969 181.203125 107.238281 180.503906 108.101562 180.503906 Z M 108.101562 180.503906 "/>
<path style=" stroke:none;fill-rule:nonzero;fill:rgb(90.196078%,90.196078%,90.196078%);fill-opacity:1;" d="M 117.300781 180.503906 L 120.140625 180.503906 C 121.003906 180.503906 121.699219 181.203125 121.699219 182.0625 C 121.699219 182.925781 121.003906 183.625 120.140625 183.625 L 117.300781 183.625 C 116.441406 183.625 115.742188 182.925781 115.742188 182.0625 C 115.742188 181.203125 116.441406 180.503906 117.300781 180.503906 Z M 117.300781 180.503906 "/>
<path style=" stroke:none;fill-rule:nonzero;fill:rgb(90.196078%,90.196078%,90.196078%);fill-opacity:1;" d="M 84.457031 180.761719 L 102.105469 180.761719 C 102.96875 180.761719 103.664062 181.460938 103.664062 182.324219 C 103.664062 183.183594 102.96875 183.882812 102.105469 183.882812 L 84.457031 183.882812 C 83.597656 183.882812 82.898438 183.183594 82.898438 182.324219 C 82.898438 181.460938 83.597656 180.761719 84.457031 180.761719 Z M 84.457031 180.761719 "/>
<path style=" stroke:none;fill-rule:nonzero;fill:rgb(90.196078%,90.196078%,90.196078%);fill-opacity:1;" d="M 84.285156 173.460938 L 87.125 173.460938 C 87.984375 173.460938 88.683594 174.160156 88.683594 175.023438 C 88.683594 175.882812 87.984375 176.582031 87.125 176.582031 L 84.285156 176.582031 C 83.421875 176.582031 82.726562 175.882812 82.726562 175.023438 C 82.726562 174.160156 83.421875 173.460938 84.285156 173.460938 Z M 84.285156 173.460938 "/>
<path style=" stroke:none;fill-rule:nonzero;fill:rgb(90.196078%,90.196078%,90.196078%);fill-opacity:1;" d="M 116.761719 173.460938 L 119.601562 173.460938 C 120.460938 173.460938 121.160156 174.160156 121.160156 175.023438 C 121.160156 175.882812 120.460938 176.582031 119.601562 176.582031 L 116.761719 176.582031 C 115.898438 176.582031 115.203125 175.882812 115.203125 175.023438 C 115.203125 174.160156 115.898438 173.460938 116.761719 173.460938 Z M 116.761719 173.460938 "/>
<path style=" stroke:none;fill-rule:nonzero;fill:rgb(90.196078%,90.196078%,90.196078%);fill-opacity:1;" d="M 125.960938 173.460938 L 128.800781 173.460938 C 129.664062 173.460938 130.359375 174.160156 130.359375 175.023438 C 130.359375 175.882812 129.664062 176.582031 128.800781 176.582031 L 125.960938 176.582031 C 125.101562 176.582031 124.402344 175.882812 124.402344 175.023438 C 124.402344 174.160156 125.101562 173.460938 125.960938 173.460938 Z M 125.960938 173.460938 "/>
<path style=" stroke:none;fill-rule:nonzero;fill:rgb(90.196078%,90.196078%,90.196078%);fill-opacity:1;" d="M 93.117188 173.722656 L 110.765625 173.722656 C 111.628906 173.722656 112.324219 174.421875 112.324219 175.28125 C 112.324219 176.144531 111.628906 176.839844 110.765625 176.839844 L 93.117188 176.839844 C 92.257812 176.839844 91.558594 176.144531 91.558594 175.28125 C 91.558594 174.421875 92.257812 173.722656 93.117188 173.722656 Z M 93.117188 173.722656 "/>
<path style=" stroke:none;fill-rule:nonzero;fill:rgb(24.705882%,23.921569%,33.72549%);fill-opacity:1;" d="M 50.933594 296.3125 C 51.265625 296.480469 51.597656 296.648438 51.929688 296.8125 C 60.480469 301.089844 67.324219 303.523438 76.683594 306.1875 C 77.472656 297.359375 78.234375 281.839844 78.976562 272.21875 C 79.171875 269.722656 79.367188 267.625 79.554688 266.148438 C 79.605469 265.363281 79.765625 264.585938 80.03125 263.847656 L 80 266.148438 L 79.917969 272.21875 L 79.449219 306.945312 C 91.089844 310.027344 103.046875 311.753906 115.085938 312.085938 C 115.714844 312.101562 116.332031 312.113281 116.925781 312.125 C 117.136719 312.128906 117.34375 312.136719 117.546875 312.136719 C 118.226562 312.140625 118.894531 312.144531 119.574219 312.144531 C 132.257812 312.15625 144.898438 310.621094 157.210938 307.578125 C 156.945312 298.84375 156.683594 283.496094 156.425781 272.21875 C 156.375 270.015625 156.324219 267.960938 156.269531 266.148438 C 156.167969 262.269531 156.058594 259.472656 155.957031 258.539062 C 156.046875 258.703125 156.117188 258.878906 156.167969 259.0625 C 156.667969 261.398438 157.011719 263.765625 157.191406 266.148438 C 157.378906 267.960938 157.570312 270.015625 157.757812 272.21875 C 158.765625 283.9375 159.816406 299.867188 160.898438 306.621094 C 167.34375 304.859375 173.664062 302.683594 179.828125 300.105469 C 183.074219 298.75 186.265625 297.289062 189.394531 295.722656 C 188.800781 291.824219 188.179688 287.453125 187.539062 282.917969 C 187.042969 279.402344 186.527344 275.789062 186.003906 272.21875 C 185.191406 266.707031 173.125 228.171875 172.363281 226.710938 C 171.707031 225.457031 171.085938 224.277344 170.496094 223.1875 C 169.066406 220.546875 167.855469 218.4375 166.957031 217.105469 C 163.199219 211.402344 157.605469 207.15625 151.105469 205.074219 L 150.945312 205.03125 L 150.832031 205.082031 L 139.761719 201.679688 L 138.144531 201.179688 L 137.054688 200.84375 L 133.222656 197.925781 L 131.140625 196.339844 L 129.183594 194.847656 L 125.363281 191.941406 L 101.703125 193.398438 L 97.097656 204.496094 L 86.78125 208.269531 L 86.605469 208.191406 L 86.445312 208.125 L 86.285156 208.167969 C 79.785156 210.253906 74.195312 214.496094 70.4375 220.199219 C 69.925781 220.960938 69.308594 221.96875 68.613281 223.1875 C 68.015625 224.222656 67.367188 225.402344 66.664062 226.710938 C 65.660156 228.566406 64.570312 230.664062 63.410156 232.933594 C 63.15625 233.429688 62.894531 233.941406 62.636719 234.453125 C 62.15625 235.410156 61.664062 236.382812 61.167969 237.375 C 60.015625 239.675781 58.824219 242.082031 57.632812 244.523438 C 56.601562 246.640625 55.554688 250.996094 54.527344 256.539062 C 53.679688 261.144531 52.832031 266.570312 52.015625 272.21875 C 50.945312 279.542969 52.085938 288.3125 51.117188 295.050781 C 51.058594 295.480469 50.992188 295.894531 50.933594 296.3125 Z M 50.933594 296.3125 "/>
<use xlink:href="#surface5" mask="url(#mask0)"/>
<path style=" stroke:none;fill-rule:nonzero;fill:rgb(18.431373%,18.039216%,25.490196%);fill-opacity:1;" d="M 41.9375 244.941406 C 43.582031 267.625 41.878906 277.613281 50.960938 296.320312 C 59.222656 300.367188 67.832031 303.667969 76.683594 306.1875 C 77.601562 306.449219 78.523438 306.699219 79.449219 306.945312 C 91.089844 310.027344 103.046875 311.753906 115.085938 312.085938 C 115.714844 312.101562 116.332031 312.113281 116.925781 312.125 C 117.136719 312.128906 117.34375 312.136719 117.546875 312.136719 C 118.226562 312.140625 118.894531 312.144531 119.574219 312.144531 C 132.257812 312.15625 144.898438 310.621094 157.210938 307.578125 C 158.445312 307.277344 159.675781 306.957031 160.898438 306.621094 C 167.34375 304.859375 173.664062 302.683594 179.828125 300.105469 C 183.074219 298.75 186.265625 297.289062 189.394531 295.722656 C 190.105469 295.367188 190.816406 295.007812 191.511719 294.640625 C 195.101562 288.324219 197.140625 280.644531 197.183594 271.414062 C 194.699219 255.507812 47.425781 231.226562 41.9375 244.941406 Z M 41.9375 244.941406 "/>
<use xlink:href="#surface8" mask="url(#mask1)"/>
<path style=" stroke:none;fill-rule:nonzero;fill:rgb(18.431373%,18.039216%,25.490196%);fill-opacity:1;" d="M 8.566406 256.308594 C 9.058594 257.734375 10.410156 258.683594 11.914062 258.65625 L 26.253906 258.285156 C 27.773438 258.257812 29.089844 257.230469 29.492188 255.761719 L 31.519531 234.050781 C 32.242188 234.375 33.023438 234.535156 33.8125 234.519531 C 36.699219 234.445312 38.980469 232.046875 38.90625 229.15625 C 38.835938 226.269531 36.4375 223.988281 33.550781 224.058594 C 33.234375 224.058594 32.921875 224.089844 32.613281 224.15625 C 31.933594 223.421875 30.972656 223.007812 29.972656 223.015625 L 7.917969 223.585938 C 7.734375 223.59375 7.550781 223.617188 7.371094 223.652344 C 6.394531 223.835938 5.542969 224.433594 5.035156 225.292969 C 4.53125 226.148438 4.421875 227.183594 4.734375 228.128906 Z M 31.9375 232.574219 L 33.378906 227.402344 C 33.542969 226.800781 33.546875 226.171875 33.390625 225.574219 C 33.460938 225.574219 33.523438 225.539062 33.59375 225.539062 C 35.65625 225.496094 37.363281 227.132812 37.410156 229.195312 C 37.457031 231.257812 35.828125 232.96875 33.769531 233.023438 C 33.128906 233.042969 32.496094 232.886719 31.9375 232.574219 Z M 31.9375 232.574219 "/>
<path style=" stroke:none;fill-rule:nonzero;fill:rgb(24.705882%,23.921569%,33.72549%);fill-opacity:1;" d="M 7.371094 223.652344 C 7.84375 226.34375 13.125 228.234375 19.480469 227.90625 C 25.320312 227.636719 30.097656 225.582031 30.972656 223.148438 C 30.648438 223.054688 30.3125 223.007812 29.972656 223.015625 L 7.917969 223.585938 C 7.734375 223.59375 7.550781 223.617188 7.371094 223.652344 Z M 7.371094 223.652344 "/>
<path style=" stroke:none;fill-rule:nonzero;fill:rgb(20.784314%,97.647059%,14.901961%);fill-opacity:1;" d="M 20.644531 244.378906 C 20.671875 244.371094 20.699219 244.359375 20.726562 244.339844 L 23.839844 242.300781 C 23.914062 242.25 23.960938 242.167969 23.960938 242.074219 C 23.960938 241.984375 23.914062 241.898438 23.839844 241.847656 L 20.601562 239.726562 C 20.519531 239.671875 20.417969 239.667969 20.332031 239.710938 C 20.246094 239.753906 20.1875 239.839844 20.183594 239.9375 C 20.175781 240.035156 20.222656 240.125 20.304688 240.179688 L 23.195312 242.074219 L 20.429688 243.886719 C 20.316406 243.960938 20.277344 244.101562 20.328125 244.222656 C 20.382812 244.34375 20.515625 244.410156 20.644531 244.378906 Z M 20.644531 244.378906 "/>
<path style=" stroke:none;fill-rule:nonzero;fill:rgb(20.784314%,97.647059%,14.901961%);fill-opacity:1;" d="M 15.722656 244.605469 C 15.832031 244.578125 15.910156 244.488281 15.925781 244.378906 C 15.941406 244.269531 15.886719 244.160156 15.792969 244.105469 L 12.921875 242.460938 L 15.695312 240.398438 C 15.816406 240.308594 15.839844 240.140625 15.753906 240.019531 C 15.664062 239.898438 15.492188 239.875 15.375 239.964844 L 12.269531 242.273438 C 12.195312 242.328125 12.152344 242.414062 12.160156 242.503906 C 12.164062 242.597656 12.214844 242.679688 12.292969 242.722656 L 15.523438 244.578125 C 15.585938 244.613281 15.65625 244.621094 15.722656 244.605469 Z M 15.722656 244.605469 "/>
<path style=" stroke:none;fill-rule:nonzero;fill:rgb(20.784314%,97.647059%,14.901961%);fill-opacity:1;" d="M 20.332031 246.164062 C 20.359375 246.15625 20.382812 246.148438 20.40625 246.132812 C 20.46875 246.097656 20.511719 246.035156 20.53125 245.964844 C 20.546875 245.894531 20.535156 245.824219 20.5 245.761719 L 16.082031 238.5 C 16.003906 238.371094 15.839844 238.332031 15.710938 238.410156 C 15.585938 238.488281 15.542969 238.652344 15.621094 238.78125 L 20.035156 246.042969 C 20.097656 246.144531 20.21875 246.195312 20.332031 246.164062 Z M 20.332031 246.164062 "/>
<path style=" stroke:none;fill-rule:nonzero;fill:rgb(24.705882%,23.921569%,33.72549%);fill-opacity:1;" d="M 315.023438 215.683594 L 363.199219 215.683594 L 363.199219 257.933594 L 315.023438 257.933594 Z M 315.023438 215.683594 "/>
<path style=" stroke:none;fill-rule:nonzero;fill:rgb(80%,80%,80%);fill-opacity:1;" d="M 370.339844 156.667969 C 369.445312 161.964844 370.230469 167.410156 372.582031 172.238281 C 373.453125 174.015625 374.53125 176.152344 373.46875 177.824219 C 372.867188 178.667969 371.917969 179.195312 370.878906 179.257812 C 369.859375 179.3125 368.832031 179.179688 367.859375 178.867188 "/>
<path style=" stroke:none;fill-rule:nonzero;fill:rgb(24.705882%,23.921569%,33.72549%);fill-opacity:1;" d="M 329.640625 139.039062 C 329.640625 138.289062 328.914062 137.683594 328.015625 137.683594 C 327.117188 137.683594 326.390625 138.289062 326.390625 139.039062 C 326.390625 139.785156 327.117188 140.390625 328.015625 140.390625 C 328.914062 140.390625 329.640625 139.785156 329.640625 139.039062 Z M 329.640625 139.039062 "/>
<path style=" stroke:none;fill-rule:nonzero;fill:rgb(24.705882%,23.921569%,33.72549%);fill-opacity:1;" d="M 335.59375 139.578125 C 335.59375 138.832031 334.867188 138.226562 333.96875 138.226562 C 333.074219 138.226562 332.34375 138.832031 332.34375 139.578125 C 332.34375 140.328125 333.074219 140.933594 333.96875 140.933594 C 334.867188 140.933594 335.59375 140.328125 335.59375 139.578125 Z M 335.59375 139.578125 "/>
<path style=" stroke:none;fill-rule:nonzero;fill:rgb(24.705882%,23.921569%,33.72549%);fill-opacity:1;" d="M 341.546875 142.289062 C 341.546875 141.539062 340.820312 140.933594 339.921875 140.933594 C 339.027344 140.933594 338.300781 141.539062 338.300781 142.289062 C 338.300781 143.035156 339.027344 143.640625 339.921875 143.640625 C 340.820312 143.640625 341.546875 143.035156 341.546875 142.289062 Z M 341.546875 142.289062 "/>
<path style=" stroke:none;fill-rule:nonzero;fill:rgb(24.705882%,23.921569%,33.72549%);fill-opacity:1;" d="M 348.582031 140.664062 C 348.582031 139.914062 347.855469 139.308594 346.960938 139.308594 C 346.0625 139.308594 345.335938 139.914062 345.335938 140.664062 C 345.335938 141.410156 346.0625 142.015625 346.960938 142.015625 C 347.855469 142.015625 348.582031 141.410156 348.582031 140.664062 Z M 348.582031 140.664062 "/>
<path style=" stroke:none;fill-rule:nonzero;fill:rgb(24.705882%,23.921569%,33.72549%);fill-opacity:1;" d="M 199.152344 167.683594 C 207.039062 165.492188 215.824219 167.839844 221.917969 173.21875 C 225.207031 176.140625 227.617188 179.917969 228.886719 184.132812 C 230.445312 189.148438 230.703125 194.4375 230.863281 199.652344 C 231.042969 205.414062 231.203125 211.179688 231.367188 216.945312 C 231.527344 222.441406 231.546875 227.964844 231.914062 233.449219 C 232.222656 238.054688 232.957031 242.835938 235.421875 246.828125 C 237.703125 250.53125 241.308594 253.03125 245.386719 254.410156 C 249.519531 255.804688 253.972656 256.128906 258.304688 256.101562 C 263.347656 256.085938 268.382812 255.6875 273.367188 254.910156 C 282.832031 253.390625 292.183594 249.519531 297.964844 241.535156 C 300.625 237.910156 302.121094 233.558594 302.25 229.0625 C 302.375 223.820312 300.699219 218.746094 298.867188 213.90625 C 297.085938 209.195312 295.15625 204.554688 294.027344 199.628906 C 292.976562 195.019531 292.476562 190.304688 292.539062 185.578125 C 292.632812 176.121094 294.898438 166.8125 299.15625 158.371094 C 301.3125 154.035156 304.046875 150.015625 307.285156 146.414062 C 310.621094 142.777344 314.757812 139.777344 319.671875 138.792969 C 322.074219 138.296875 324.558594 138.394531 326.910156 139.085938 C 327.914062 139.386719 328.339844 137.816406 327.339844 137.519531 C 322.46875 136.058594 317.179688 137.167969 312.859375 139.703125 C 308.613281 142.191406 305.257812 145.929688 302.414062 149.890625 C 291.328125 165.625 288.050781 185.574219 293.519531 204.03125 C 296.410156 213.503906 302.695312 223.367188 299.996094 233.617188 C 297.632812 242.59375 289.445312 248.691406 280.988281 251.445312 C 275.855469 253.117188 270.476562 253.824219 265.109375 254.1875 C 260.574219 254.5 255.980469 254.695312 251.457031 254.113281 C 247.304688 253.578125 243.035156 252.304688 239.8125 249.515625 C 236.285156 246.457031 234.671875 242.0625 233.96875 237.554688 C 233.175781 232.453125 233.292969 227.191406 233.140625 222.042969 L 232.628906 204.46875 C 232.339844 194.542969 232.589844 183.542969 226.136719 175.320312 C 220.910156 168.824219 212.980469 165.105469 204.648438 165.238281 C 202.644531 165.285156 200.652344 165.578125 198.71875 166.117188 C 198.304688 166.246094 198.0625 166.6875 198.179688 167.109375 C 198.296875 167.53125 198.726562 167.785156 199.152344 167.683594 Z M 199.152344 167.683594 "/>
<path style=" stroke:none;fill-rule:nonzero;fill:rgb(100%,71.372549%,71.372549%);fill-opacity:1;" d="M 83.878906 157.402344 C 86.273438 174.445312 102.011719 186.324219 119.042969 183.949219 C 136.074219 181.570312 147.964844 165.832031 145.605469 148.785156 L 145.542969 148.34375 C 142.800781 131.539062 127.09375 120.042969 110.261719 122.515625 C 93.429688 124.988281 81.6875 140.519531 83.886719 157.402344 Z M 83.878906 157.402344 "/>
<path style=" stroke:none;fill-rule:nonzero;fill:rgb(18.431373%,18.039216%,25.490196%);fill-opacity:1;" d="M 111.347656 183.1875 C 109.738281 179.941406 108.082031 176.453125 108.519531 172.855469 C 108.957031 169.253906 112.472656 165.804688 115.9375 166.863281 C 118.011719 167.496094 119.582031 169.535156 121.746094 169.632812 C 124.722656 169.765625 126.421875 166.351562 127.335938 163.511719 L 131.074219 151.953125 C 138.28125 157.617188 129.152344 151.675781 138.078125 149.605469 C 141.582031 148.789062 145.117188 147.214844 147.164062 144.257812 C 149.210938 141.296875 149.179688 136.71875 146.355469 134.496094 C 144.96875 133.40625 143.125 133 141.800781 131.835938 C 140.113281 130.351562 139.59375 127.941406 140.523438 125.894531 C 141.453125 123.847656 143.613281 122.65625 145.835938 122.953125 L 136.328125 121.796875 L 139.144531 116.664062 C 137.109375 118.277344 134.269531 118.503906 131.710938 118.054688 C 129.152344 117.601562 126.742188 116.554688 124.238281 115.859375 C 112.21875 112.527344 98.28125 118.441406 92.3125 129.402344 C 87.519531 127.816406 82.246094 129.359375 79.0625 133.277344 C 76.527344 136.519531 75.851562 140.835938 75.765625 144.949219 C 75.609375 153.058594 77.402344 161.085938 80.996094 168.355469 C 82.117188 170.617188 83.441406 172.832031 85.34375 174.484375 C 87.25 176.140625 108.765625 185.296875 111.25 184.863281 "/>
<path style=" stroke:none;fill-rule:nonzero;fill:rgb(90.196078%,90.196078%,90.196078%);fill-opacity:1;" d="M 336.132812 161.789062 C 336.140625 163.195312 335.957031 164.59375 335.597656 165.953125 L 335.597656 165.957031 C 335.59375 165.984375 335.582031 166.011719 335.578125 166.039062 C 334.484375 170.066406 331.875 172.890625 328.828125 172.890625 C 325.796875 172.890625 323.199219 170.085938 322.089844 166.09375 C 322.011719 165.816406 321.949219 165.542969 321.886719 165.253906 C 321.8125 164.933594 321.753906 164.605469 321.703125 164.261719 C 321.660156 163.992188 321.628906 163.714844 321.601562 163.433594 C 321.5625 163.042969 321.535156 162.65625 321.53125 162.25 L 321.53125 162.242188 C 321.519531 162.089844 321.519531 161.941406 321.519531 161.789062 L 321.519531 161.652344 L 321.527344 161.648438 C 321.527344 160.960938 321.570312 160.273438 321.660156 159.59375 C 321.699219 159.308594 321.742188 159.03125 321.796875 158.753906 C 321.859375 158.417969 321.929688 158.089844 322.019531 157.761719 C 322.089844 157.476562 322.167969 157.199219 322.257812 156.921875 C 322.375 156.554688 322.503906 156.199219 322.652344 155.855469 C 322.742188 155.632812 322.839844 155.417969 322.9375 155.207031 C 324.269531 152.464844 326.414062 150.683594 328.828125 150.683594 C 332.167969 150.683594 334.980469 154.089844 335.851562 158.738281 C 335.863281 158.808594 335.878906 158.878906 335.886719 158.949219 L 335.886719 158.953125 C 336.050781 159.890625 336.136719 160.839844 336.132812 161.789062 Z M 336.132812 161.789062 "/>
<path style=" stroke:none;fill-rule:nonzero;fill:rgb(20.784314%,97.647059%,14.901961%);fill-opacity:1;" d="M 323.007812 155.445312 C 323.003906 155.648438 322.851562 155.820312 322.652344 155.855469 C 322.742188 155.632812 322.839844 155.417969 322.9375 155.207031 C 322.984375 155.277344 323.007812 155.359375 323.007812 155.445312 Z M 323.007812 155.445312 "/>
<path style=" stroke:none;fill-rule:nonzero;fill:rgb(20.784314%,97.647059%,14.901961%);fill-opacity:1;" d="M 324.644531 154.953125 L 329.40625 154.953125 C 329.640625 154.953125 329.828125 155.140625 329.828125 155.371094 C 329.828125 155.605469 329.640625 155.792969 329.40625 155.792969 L 324.644531 155.792969 C 324.414062 155.792969 324.222656 155.605469 324.222656 155.371094 C 324.222656 155.140625 324.414062 154.953125 324.644531 154.953125 Z M 324.644531 154.953125 "/>
<path style=" stroke:none;fill-rule:nonzero;fill:rgb(20.784314%,97.647059%,14.901961%);fill-opacity:1;" d="M 322.863281 157.339844 C 322.863281 157.574219 322.671875 157.761719 322.441406 157.761719 L 322.019531 157.761719 C 322.089844 157.476562 322.167969 157.199219 322.257812 156.921875 L 322.441406 156.921875 C 322.671875 156.921875 322.859375 157.109375 322.863281 157.339844 Z M 322.863281 157.339844 "/>
<path style=" stroke:none;fill-rule:nonzero;fill:rgb(20.784314%,97.647059%,14.901961%);fill-opacity:1;" d="M 324.160156 156.921875 L 324.925781 156.921875 C 325.160156 156.921875 325.347656 157.109375 325.347656 157.34375 C 325.347656 157.574219 325.160156 157.765625 324.925781 157.765625 L 324.160156 157.765625 C 323.925781 157.765625 323.738281 157.574219 323.738281 157.34375 C 323.738281 157.109375 323.925781 156.921875 324.160156 156.921875 Z M 324.160156 156.921875 "/>
<path style=" stroke:none;fill-rule:nonzero;fill:rgb(20.784314%,97.647059%,14.901961%);fill-opacity:1;" d="M 326.980469 156.851562 L 331.746094 156.851562 C 331.976562 156.851562 332.167969 157.039062 332.167969 157.273438 C 332.167969 157.503906 331.976562 157.695312 331.746094 157.695312 L 326.980469 157.695312 C 326.75 157.695312 326.5625 157.503906 326.5625 157.273438 C 326.5625 157.039062 326.75 156.851562 326.980469 156.851562 Z M 326.980469 156.851562 "/>
<path style=" stroke:none;fill-rule:nonzero;fill:rgb(20.784314%,97.647059%,14.901961%);fill-opacity:1;" d="M 324.015625 158.824219 L 324.78125 158.824219 C 325.011719 158.824219 325.199219 159.011719 325.199219 159.242188 C 325.199219 159.476562 325.011719 159.664062 324.78125 159.664062 L 324.015625 159.664062 C 323.78125 159.664062 323.59375 159.476562 323.59375 159.242188 C 323.59375 159.011719 323.78125 158.824219 324.015625 158.824219 Z M 324.015625 158.824219 "/>
<path style=" stroke:none;fill-rule:nonzero;fill:rgb(20.784314%,97.647059%,14.901961%);fill-opacity:1;" d="M 326.496094 158.824219 L 327.261719 158.824219 C 327.496094 158.824219 327.683594 159.011719 327.683594 159.242188 C 327.683594 159.476562 327.496094 159.664062 327.261719 159.664062 L 326.496094 159.664062 C 326.265625 159.664062 326.078125 159.476562 326.078125 159.242188 C 326.078125 159.011719 326.265625 158.824219 326.496094 158.824219 Z M 326.496094 158.824219 "/>
<path style=" stroke:none;fill-rule:nonzero;fill:rgb(20.784314%,97.647059%,14.901961%);fill-opacity:1;" d="M 322.820312 159.171875 C 322.820312 159.40625 322.628906 159.59375 322.398438 159.59375 L 321.660156 159.59375 C 321.699219 159.308594 321.742188 159.03125 321.796875 158.753906 L 322.398438 158.753906 C 322.507812 158.753906 322.617188 158.796875 322.695312 158.875 C 322.773438 158.953125 322.820312 159.058594 322.820312 159.171875 Z M 322.820312 159.171875 "/>
<path style=" stroke:none;fill-rule:nonzero;fill:rgb(20.784314%,97.647059%,14.901961%);fill-opacity:1;" d="M 329.320312 158.753906 L 334.082031 158.753906 C 334.316406 158.753906 334.503906 158.941406 334.503906 159.171875 C 334.503906 159.40625 334.316406 159.59375 334.082031 159.59375 L 329.320312 159.59375 C 329.085938 159.59375 328.898438 159.40625 328.898438 159.171875 C 328.898438 158.941406 329.085938 158.753906 329.320312 158.753906 Z M 329.320312 158.753906 "/>
<path style=" stroke:none;fill-rule:nonzero;fill:rgb(80%,80%,80%);fill-opacity:1;" d="M 323.007812 161.945312 C 323.007812 162.054688 322.964844 162.164062 322.882812 162.242188 C 322.804688 162.320312 322.699219 162.363281 322.585938 162.363281 L 321.824219 162.363281 C 321.714844 162.363281 321.609375 162.320312 321.53125 162.25 L 321.53125 162.242188 C 321.519531 162.089844 321.519531 161.941406 321.519531 161.789062 L 321.519531 161.652344 L 321.527344 161.648438 C 321.605469 161.566406 321.710938 161.523438 321.824219 161.523438 L 322.585938 161.523438 C 322.820312 161.523438 323.007812 161.710938 323.007812 161.945312 Z M 323.007812 161.945312 "/>
<path style=" stroke:none;fill-rule:nonzero;fill:rgb(80%,80%,80%);fill-opacity:1;" d="M 324.644531 161.453125 L 329.40625 161.453125 C 329.640625 161.453125 329.828125 161.640625 329.828125 161.871094 C 329.828125 162.105469 329.640625 162.292969 329.40625 162.292969 L 324.644531 162.292969 C 324.414062 162.292969 324.222656 162.105469 324.222656 161.871094 C 324.222656 161.640625 324.414062 161.453125 324.644531 161.453125 Z M 324.644531 161.453125 "/>
<path style=" stroke:none;fill-rule:nonzero;fill:rgb(80%,80%,80%);fill-opacity:1;" d="M 322.863281 163.839844 C 322.863281 164.074219 322.671875 164.261719 322.441406 164.261719 L 321.703125 164.261719 C 321.660156 163.992188 321.628906 163.714844 321.601562 163.433594 C 321.625 163.425781 321.652344 163.421875 321.675781 163.421875 L 322.441406 163.421875 C 322.671875 163.421875 322.859375 163.609375 322.863281 163.839844 Z M 322.863281 163.839844 "/>
<path style=" stroke:none;fill-rule:nonzero;fill:rgb(80%,80%,80%);fill-opacity:1;" d="M 324.160156 163.421875 L 324.925781 163.421875 C 325.160156 163.421875 325.347656 163.609375 325.347656 163.84375 C 325.347656 164.074219 325.160156 164.265625 324.925781 164.265625 L 324.160156 164.265625 C 323.925781 164.265625 323.738281 164.074219 323.738281 163.84375 C 323.738281 163.609375 323.925781 163.421875 324.160156 163.421875 Z M 324.160156 163.421875 "/>
<path style=" stroke:none;fill-rule:nonzero;fill:rgb(80%,80%,80%);fill-opacity:1;" d="M 326.980469 163.351562 L 331.746094 163.351562 C 331.976562 163.351562 332.167969 163.539062 332.167969 163.773438 C 332.167969 164.003906 331.976562 164.195312 331.746094 164.195312 L 326.980469 164.195312 C 326.75 164.195312 326.5625 164.003906 326.5625 163.773438 C 326.5625 163.539062 326.75 163.351562 326.980469 163.351562 Z M 326.980469 163.351562 "/>
<path style=" stroke:none;fill-rule:nonzero;fill:rgb(80%,80%,80%);fill-opacity:1;" d="M 324.015625 165.324219 L 324.78125 165.324219 C 325.011719 165.324219 325.199219 165.511719 325.199219 165.742188 C 325.199219 165.976562 325.011719 166.164062 324.78125 166.164062 L 324.015625 166.164062 C 323.78125 166.164062 323.59375 165.976562 323.59375 165.742188 C 323.59375 165.511719 323.78125 165.324219 324.015625 165.324219 Z M 324.015625 165.324219 "/>
<path style=" stroke:none;fill-rule:nonzero;fill:rgb(80%,80%,80%);fill-opacity:1;" d="M 326.496094 165.324219 L 327.261719 165.324219 C 327.496094 165.324219 327.683594 165.511719 327.683594 165.742188 C 327.683594 165.976562 327.496094 166.164062 327.261719 166.164062 L 326.496094 166.164062 C 326.265625 166.164062 326.078125 165.976562 326.078125 165.742188 C 326.078125 165.511719 326.265625 165.324219 326.496094 165.324219 Z M 326.496094 165.324219 "/>
<path style=" stroke:none;fill-rule:nonzero;fill:rgb(80%,80%,80%);fill-opacity:1;" d="M 322.820312 165.671875 C 322.820312 165.90625 322.628906 166.09375 322.398438 166.09375 L 322.089844 166.09375 C 322.011719 165.816406 321.949219 165.542969 321.886719 165.253906 L 322.398438 165.253906 C 322.507812 165.253906 322.617188 165.296875 322.695312 165.375 C 322.773438 165.453125 322.820312 165.558594 322.820312 165.671875 Z M 322.820312 165.671875 "/>
<path style=" stroke:none;fill-rule:nonzero;fill:rgb(80%,80%,80%);fill-opacity:1;" d="M 329.320312 165.253906 L 334.082031 165.253906 C 334.316406 165.253906 334.503906 165.441406 334.503906 165.671875 C 334.503906 165.90625 334.316406 166.09375 334.082031 166.09375 L 329.320312 166.09375 C 329.085938 166.09375 328.898438 165.90625 328.898438 165.671875 C 328.898438 165.441406 329.085938 165.253906 329.320312 165.253906 Z M 329.320312 165.253906 "/>
</g>
</svg>
