<?xml version="1.0" encoding="UTF-8"?>
<svg xmlns="http://www.w3.org/2000/svg" xmlns:xlink="http://www.w3.org/1999/xlink" width="587px" height="427px" viewBox="0 0 587 427" version="1.1">
<defs>
<filter id="alpha" filterUnits="objectBoundingBox" x="0%" y="0%" width="100%" height="100%">
  <feColorMatrix type="matrix" in="SourceGraphic" values="0 0 0 0 1 0 0 0 0 1 0 0 0 0 1 0 0 0 1 0"/>
</filter>
<mask id="mask0">
  <g filter="url(#alpha)">
<rect x="0" y="0" width="587" height="427" style="fill:rgb(0%,0%,0%);fill-opacity:0.2;stroke:none;"/>
  </g>
</mask>
<clipPath id="clip1">
  <rect x="0" y="0" width="587" height="427"/>
</clipPath>
<g id="surface5" clip-path="url(#clip1)">
<path style=" stroke:none;fill-rule:nonzero;fill:rgb(0%,0%,0%);fill-opacity:1;" d="M 405.746094 344.464844 C 405.742188 345.769531 405.726562 347.597656 405.664062 349.863281 C 405.65625 350.175781 405.644531 350.496094 405.636719 350.824219 C 405.5625 353.996094 405.449219 357.917969 405.292969 362.34375 C 405.285156 362.613281 405.277344 362.871094 405.261719 363.140625 C 405.054688 368.546875 404.726562 374.839844 404.160156 384.804688 C 403.105469 403.214844 401.273438 387.335938 399.429688 393.792969 C 394.3125 390.644531 388.703125 387.34375 382.707031 383.953125 C 381.625 383.34375 380.535156 382.726562 379.433594 382.109375 C 367.441406 375.414062 354.042969 368.398438 340.058594 361.445312 C 339.507812 361.171875 338.949219 360.894531 338.394531 360.625 C 306.359375 344.777344 271.394531 329.363281 243.066406 319.074219 C 237.597656 317.089844 232.378906 315.296875 227.46875 313.722656 C 217.132812 310.417969 208.195312 308.101562 201.320312 307.101562 C 194.160156 306.054688 189.214844 306.429688 187.214844 308.585938 C 187.140625 307.0625 187.0625 305.605469 186.984375 304.210938 C 186.953125 303.75 186.925781 303.292969 186.894531 302.847656 C 186.941406 302.722656 187 302.605469 187.058594 302.488281 C 187.066406 302.472656 187.074219 302.453125 187.082031 302.4375 C 187.09375 302.398438 187.113281 302.359375 187.132812 302.324219 C 187.15625 302.277344 187.179688 302.234375 187.207031 302.191406 C 187.230469 302.136719 187.261719 302.085938 187.296875 302.039062 C 187.363281 301.9375 187.4375 301.824219 187.519531 301.71875 C 187.582031 301.640625 187.644531 301.566406 187.714844 301.496094 C 187.738281 301.460938 187.765625 301.425781 187.796875 301.398438 C 187.828125 301.367188 187.855469 301.332031 187.894531 301.292969 C 187.910156 301.269531 187.929688 301.25 187.953125 301.234375 C 188.011719 301.167969 188.078125 301.105469 188.148438 301.046875 C 188.414062 300.800781 188.699219 300.578125 188.996094 300.375 C 189.101562 300.308594 189.214844 300.242188 189.320312 300.167969 C 190.070312 299.714844 190.863281 299.335938 191.683594 299.03125 C 191.964844 298.925781 192.25 298.832031 192.554688 298.726562 C 192.667969 298.695312 192.773438 298.660156 192.882812 298.621094 C 193.046875 298.570312 193.210938 298.515625 193.382812 298.480469 C 194.234375 298.226562 195.152344 298.007812 196.144531 297.808594 C 196.441406 297.746094 196.753906 297.6875 197.066406 297.636719 C 197.320312 297.589844 197.582031 297.546875 197.84375 297.5 C 200.058594 297.152344 202.574219 296.890625 205.347656 296.71875 C 205.609375 296.703125 205.871094 296.6875 206.128906 296.671875 C 206.4375 296.65625 206.742188 296.644531 207.054688 296.628906 C 207.316406 296.613281 207.585938 296.605469 207.851562 296.597656 C 208.113281 296.582031 208.382812 296.574219 208.660156 296.570312 C 209.414062 296.546875 210.1875 296.523438 210.980469 296.507812 C 213.230469 296.472656 215.601562 296.488281 218.09375 296.539062 C 219.25 296.5625 220.429688 296.597656 221.636719 296.652344 C 221.710938 296.652344 221.792969 296.65625 221.867188 296.65625 C 222.921875 296.6875 223.988281 296.738281 225.066406 296.792969 C 225.828125 296.828125 226.597656 296.867188 227.367188 296.910156 C 228.089844 296.957031 228.820312 297 229.558594 297.054688 C 230.132812 297.082031 230.707031 297.128906 231.289062 297.164062 C 231.78125 297.203125 232.273438 297.242188 232.765625 297.269531 C 233.355469 297.316406 233.945312 297.359375 234.539062 297.40625 C 235.359375 297.472656 236.179688 297.539062 237.015625 297.605469 C 237.84375 297.679688 238.6875 297.753906 239.53125 297.828125 C 240.375 297.90625 241.222656 297.988281 242.074219 298.070312 C 242.164062 298.078125 242.246094 298.082031 242.328125 298.089844 C 243.101562 298.171875 243.878906 298.25 244.660156 298.332031 C 249.003906 298.769531 253.472656 299.285156 258.066406 299.875 C 260.808594 300.226562 263.589844 300.601562 266.402344 301.003906 C 270.679688 301.605469 275.019531 302.265625 279.390625 302.964844 C 283.769531 303.675781 288.171875 304.425781 292.597656 305.214844 C 293.71875 305.414062 294.835938 305.617188 295.964844 305.824219 C 297.335938 306.078125 298.707031 306.335938 300.082031 306.601562 C 300.945312 306.765625 301.8125 306.929688 302.675781 307.101562 C 303.707031 307.304688 304.742188 307.503906 305.769531 307.707031 C 312.550781 309.050781 319.292969 310.484375 325.871094 311.984375 C 326.953125 312.230469 328.035156 312.484375 329.109375 312.730469 C 331.257812 313.230469 333.386719 313.738281 335.492188 314.253906 C 336.074219 314.394531 336.648438 314.535156 337.222656 314.679688 C 338.664062 315.035156 340.089844 315.394531 341.5 315.753906 L 341.5 315.761719 C 341.582031 315.777344 341.664062 315.796875 341.746094 315.820312 C 342.773438 316.082031 343.796875 316.34375 344.808594 316.613281 C 347.203125 317.238281 349.558594 317.871094 351.875 318.507812 C 353.410156 318.941406 354.929688 319.367188 356.429688 319.800781 C 358.675781 320.457031 360.875 321.113281 363.015625 321.769531 C 363.546875 321.933594 364.074219 322.097656 364.597656 322.253906 C 366.164062 322.75 367.699219 323.238281 369.207031 323.726562 C 370.402344 324.113281 371.5625 324.511719 372.714844 324.90625 C 373.863281 325.300781 374.988281 325.695312 376.09375 326.09375 C 376.808594 326.347656 377.507812 326.609375 378.203125 326.863281 C 379.21875 327.234375 380.203125 327.609375 381.171875 327.988281 C 381.46875 328.101562 381.761719 328.21875 382.050781 328.332031 C 382.597656 328.542969 383.125 328.757812 383.648438 328.972656 C 384 329.109375 384.339844 329.25 384.683594 329.398438 C 385.019531 329.535156 385.363281 329.675781 385.691406 329.816406 C 386.027344 329.953125 386.355469 330.09375 386.683594 330.242188 C 386.960938 330.355469 387.226562 330.476562 387.488281 330.59375 C 388.019531 330.824219 388.546875 331.058594 389.0625 331.296875 C 389.316406 331.414062 389.570312 331.527344 389.824219 331.648438 L 390.40625 331.914062 C 390.488281 331.960938 390.570312 331.996094 390.652344 332.035156 C 391.285156 332.332031 391.898438 332.632812 392.492188 332.929688 C 393.054688 333.214844 393.597656 333.496094 394.121094 333.773438 C 394.738281 334.101562 395.328125 334.421875 395.894531 334.753906 C 396.007812 334.8125 396.117188 334.878906 396.230469 334.9375 C 396.609375 335.15625 396.976562 335.378906 397.339844 335.59375 C 398.058594 336.035156 398.738281 336.46875 399.371094 336.902344 C 399.996094 337.335938 400.578125 337.761719 401.125 338.1875 C 401.125 338.195312 401.125 338.195312 401.128906 338.195312 C 401.390625 338.402344 401.644531 338.613281 401.882812 338.8125 C 402.273438 339.148438 402.628906 339.46875 402.957031 339.796875 C 403.066406 339.898438 403.171875 340.007812 403.269531 340.121094 C 403.316406 340.15625 403.355469 340.195312 403.390625 340.238281 C 403.546875 340.410156 403.703125 340.582031 403.851562 340.753906 C 404.03125 340.964844 404.195312 341.171875 404.351562 341.382812 C 404.425781 341.484375 404.507812 341.589844 404.578125 341.695312 C 404.667969 341.820312 404.753906 341.957031 404.832031 342.082031 C 404.898438 342.1875 404.957031 342.300781 405.015625 342.402344 C 405.175781 342.671875 405.308594 342.953125 405.417969 343.246094 C 405.5 343.445312 405.570312 343.652344 405.621094 343.859375 C 405.675781 344.058594 405.71875 344.261719 405.746094 344.464844 Z M 405.746094 344.464844 "/>
</g>
</defs>
<g id="surface1">
<path style=" stroke:none;fill-rule:nonzero;fill:rgb(94.901961%,94.901961%,94.901961%);fill-opacity:1;" d="M 361.761719 55.375 C 361.761719 66.386719 352.847656 75.308594 341.847656 75.308594 C 330.847656 75.308594 321.933594 66.386719 321.933594 55.375 C 321.933594 44.367188 330.847656 35.445312 341.847656 35.445312 C 352.847656 35.445312 361.761719 44.367188 361.761719 55.375 Z M 361.761719 55.375 "/>
<path style=" stroke:none;fill-rule:nonzero;fill:rgb(94.901961%,94.901961%,94.901961%);fill-opacity:1;" d="M 496.335938 371.125 C 525.941406 348.558594 540.078125 310.640625 531.226562 274.464844 C 531.007812 273.566406 530.773438 272.671875 530.53125 271.777344 C 524.664062 250.304688 510.144531 229.898438 488.984375 223.035156 C 471.21875 217.277344 451.828125 221.707031 433.292969 219.414062 C 396.90625 214.917969 368.699219 185.453125 348.851562 154.605469 C 329.003906 123.753906 313.75 89.222656 287.375 63.734375 C 243.902344 21.726562 172.988281 12.683594 119.085938 40.027344 C 65.1875 67.371094 30.851562 128.039062 32.316406 188.503906 C 33.78125 248.964844 69.644531 306.773438 121.726562 337.441406 C 140.863281 348.710938 162.992188 356.691406 185.015625 353.898438 C 204.125 351.476562 221.488281 341.199219 240.503906 338.148438 C 270.410156 333.351562 300.121094 346.882812 325.984375 362.652344 C 351.847656 378.417969 376.832031 397.109375 406.222656 404.417969 C 434.757812 411.519531 470.113281 391.117188 496.335938 371.125 Z M 496.335938 371.125 "/>
<path style=" stroke:none;fill-rule:nonzero;fill:rgb(24.705882%,23.921569%,33.72549%);fill-opacity:1;" d="M 453.808594 41.296875 C 453.15625 40.863281 452.5 40.453125 451.851562 40.035156 C 433.09375 28.027344 412.988281 18.273438 391.953125 10.972656 L 387.074219 78.324219 L 356.148438 78.324219 L 356.148438 1.140625 C 354.203125 0.738281 352.242188 0.359375 350.28125 0 L 350.28125 78.324219 L 313.53125 78.324219 C 271.402344 78.324219 237.25 44.140625 237.25 1.976562 C 235.28125 2.402344 233.328125 2.859375 231.375 3.34375 L 231.375 78.324219 L 201.441406 78.324219 L 196.792969 14.101562 C 175.175781 22.398438 154.652344 33.3125 135.679688 46.597656 C 135.351562 46.820312 135.023438 47.050781 134.699219 47.277344 C 133.054688 48.433594 131.425781 49.613281 129.808594 50.808594 L 129.808594 307.746094 L 218.023438 307.746094 L 216.464844 286.136719 L 207.886719 167.476562 L 380.621094 167.476562 L 372.042969 286.136719 L 370.484375 307.746094 L 457.722656 307.746094 L 457.722656 43.894531 C 456.425781 43.011719 455.121094 42.148438 453.808594 41.296875 Z M 231.375 147.882812 L 206.46875 147.882812 L 201.867188 84.207031 L 231.375 84.207031 Z M 350.28125 147.882812 L 308.453125 147.882812 L 308.453125 146.621094 C 308.453125 145.394531 307.964844 144.222656 307.097656 143.355469 C 306.234375 142.492188 305.058594 142.003906 303.835938 142.007812 L 285.652344 142.007812 C 283.105469 142.007812 281.039062 144.074219 281.039062 146.621094 L 281.039062 147.882812 L 237.25 147.882812 L 237.25 84.207031 L 350.28125 84.207031 Z M 356.148438 147.882812 L 356.148438 84.207031 L 386.648438 84.207031 L 382.046875 147.882812 Z M 356.148438 147.882812 "/>
<path style=" stroke:none;fill-rule:nonzero;fill:rgb(24.705882%,23.921569%,33.72549%);fill-opacity:1;" d="M 0 324.199219 C 6.480469 331.882812 13.488281 339.105469 20.972656 345.8125 L 565.890625 346.558594 C 573.378906 339.851562 580.386719 332.628906 586.867188 324.945312 Z M 0 324.199219 "/>
<path style=" stroke:none;fill-rule:nonzero;fill:rgb(24.705882%,23.921569%,33.72549%);fill-opacity:1;" d="M 369.527344 255 L 369.527344 318.976562 C 369.527344 320.675781 370.902344 322.050781 372.597656 322.050781 L 467.328125 322.050781 C 469.023438 322.050781 470.398438 320.675781 470.398438 318.976562 L 470.398438 255 C 470.394531 253.304688 469.023438 251.929688 467.328125 251.925781 L 372.597656 251.925781 C 370.902344 251.929688 369.53125 253.304688 369.527344 255 Z M 369.527344 255 "/>
<path style=" stroke:none;fill-rule:nonzero;fill:rgb(20.784314%,97.647059%,14.901961%);fill-opacity:1;" d="M 371.75 255.796875 L 371.75 318.1875 C 371.75 319.09375 372.484375 319.828125 373.390625 319.832031 L 466.539062 319.832031 C 467.445312 319.828125 468.179688 319.09375 468.179688 318.1875 L 468.179688 255.796875 C 468.179688 254.886719 467.445312 254.148438 466.539062 254.148438 L 373.390625 254.148438 C 372.484375 254.148438 371.75 254.886719 371.75 255.796875 Z M 371.75 255.796875 "/>
<path style=" stroke:none;fill-rule:nonzero;fill:rgb(18.431373%,18.039216%,25.490196%);fill-opacity:1;" d="M 367.546875 331.453125 C 367.898438 331.894531 368.429688 332.152344 368.996094 332.148438 L 470.425781 332.148438 C 470.988281 332.148438 471.519531 331.894531 471.875 331.457031 C 472.226562 331.019531 472.367188 330.449219 472.25 329.898438 L 470.675781 322.414062 C 470.542969 321.792969 470.105469 321.28125 469.515625 321.054688 C 469.304688 320.972656 469.078125 320.929688 468.851562 320.929688 L 370.5625 320.929688 C 370.335938 320.929688 370.113281 320.972656 369.902344 321.054688 C 369.308594 321.28125 368.871094 321.792969 368.738281 322.414062 L 367.164062 329.898438 C 367.050781 330.449219 367.191406 331.019531 367.546875 331.453125 Z M 367.546875 331.453125 "/>
<path style=" stroke:none;fill-rule:nonzero;fill:rgb(24.705882%,23.921569%,33.72549%);fill-opacity:1;" d="M 467.769531 324.15625 L 465.371094 324.15625 C 465.171875 324.15625 465.007812 323.992188 465.007812 323.789062 L 465.007812 322.644531 C 465.007812 322.441406 465.171875 322.277344 465.371094 322.277344 L 467.769531 322.277344 C 467.96875 322.277344 468.132812 322.441406 468.132812 322.644531 L 468.132812 323.789062 C 468.132812 323.992188 467.96875 324.15625 467.769531 324.15625 Z M 467.769531 324.15625 "/>
<path style=" stroke:none;fill-rule:nonzero;fill:rgb(24.705882%,23.921569%,33.72549%);fill-opacity:1;" d="M 461.519531 324.15625 L 459.125 324.15625 C 458.921875 324.15625 458.761719 323.992188 458.761719 323.789062 L 458.761719 322.644531 C 458.761719 322.441406 458.921875 322.277344 459.125 322.277344 L 461.519531 322.277344 C 461.722656 322.277344 461.882812 322.441406 461.882812 322.644531 L 461.882812 323.789062 C 461.882812 323.992188 461.722656 324.15625 461.519531 324.15625 Z M 461.519531 324.15625 "/>
<path style=" stroke:none;fill-rule:nonzero;fill:rgb(24.705882%,23.921569%,33.72549%);fill-opacity:1;" d="M 455.273438 324.15625 L 452.875 324.15625 C 452.675781 324.15625 452.511719 323.992188 452.511719 323.789062 L 452.511719 322.644531 C 452.511719 322.441406 452.675781 322.277344 452.875 322.277344 L 455.273438 322.277344 C 455.472656 322.277344 455.636719 322.441406 455.636719 322.644531 L 455.636719 323.789062 C 455.636719 323.992188 455.472656 324.15625 455.273438 324.15625 Z M 455.273438 324.15625 "/>
<path style=" stroke:none;fill-rule:nonzero;fill:rgb(24.705882%,23.921569%,33.72549%);fill-opacity:1;" d="M 449.023438 324.15625 L 446.628906 324.15625 C 446.425781 324.15625 446.265625 323.992188 446.265625 323.789062 L 446.265625 322.644531 C 446.265625 322.441406 446.425781 322.277344 446.628906 322.277344 L 449.023438 322.277344 C 449.226562 322.277344 449.386719 322.441406 449.386719 322.644531 L 449.386719 323.789062 C 449.386719 323.992188 449.226562 324.15625 449.023438 324.15625 Z M 449.023438 324.15625 "/>
<path style=" stroke:none;fill-rule:nonzero;fill:rgb(24.705882%,23.921569%,33.72549%);fill-opacity:1;" d="M 442.777344 324.15625 L 440.378906 324.15625 C 440.179688 324.15625 440.015625 323.992188 440.015625 323.789062 L 440.015625 322.644531 C 440.015625 322.441406 440.179688 322.277344 440.378906 322.277344 L 442.777344 322.277344 C 442.976562 322.277344 443.140625 322.441406 443.140625 322.644531 L 443.140625 323.789062 C 443.140625 323.992188 442.976562 324.15625 442.777344 324.15625 Z M 442.777344 324.15625 "/>
<path style=" stroke:none;fill-rule:nonzero;fill:rgb(24.705882%,23.921569%,33.72549%);fill-opacity:1;" d="M 436.527344 324.15625 L 434.132812 324.15625 C 433.929688 324.15625 433.765625 323.992188 433.765625 323.789062 L 433.765625 322.644531 C 433.765625 322.441406 433.929688 322.277344 434.132812 322.277344 L 436.527344 322.277344 C 436.730469 322.277344 436.890625 322.441406 436.890625 322.644531 L 436.890625 323.789062 C 436.890625 323.992188 436.730469 324.15625 436.527344 324.15625 Z M 436.527344 324.15625 "/>
<path style=" stroke:none;fill-rule:nonzero;fill:rgb(24.705882%,23.921569%,33.72549%);fill-opacity:1;" d="M 430.28125 324.15625 L 427.882812 324.15625 C 427.683594 324.15625 427.519531 323.992188 427.519531 323.789062 L 427.519531 322.644531 C 427.519531 322.441406 427.683594 322.277344 427.882812 322.277344 L 430.28125 322.277344 C 430.480469 322.277344 430.644531 322.441406 430.644531 322.644531 L 430.644531 323.789062 C 430.644531 323.992188 430.480469 324.15625 430.28125 324.15625 Z M 430.28125 324.15625 "/>
<path style=" stroke:none;fill-rule:nonzero;fill:rgb(24.705882%,23.921569%,33.72549%);fill-opacity:1;" d="M 424.03125 324.15625 L 421.636719 324.15625 C 421.433594 324.15625 421.269531 323.992188 421.269531 323.789062 L 421.269531 322.644531 C 421.269531 322.441406 421.433594 322.277344 421.636719 322.277344 L 424.03125 322.277344 C 424.230469 322.277344 424.394531 322.441406 424.394531 322.644531 L 424.394531 323.789062 C 424.394531 323.992188 424.230469 324.15625 424.03125 324.15625 Z M 424.03125 324.15625 "/>
<path style=" stroke:none;fill-rule:nonzero;fill:rgb(24.705882%,23.921569%,33.72549%);fill-opacity:1;" d="M 417.78125 324.15625 L 415.386719 324.15625 C 415.1875 324.15625 415.023438 323.992188 415.023438 323.789062 L 415.023438 322.644531 C 415.023438 322.441406 415.1875 322.277344 415.386719 322.277344 L 417.78125 322.277344 C 417.984375 322.277344 418.148438 322.441406 418.148438 322.644531 L 418.148438 323.789062 C 418.148438 323.992188 417.984375 324.15625 417.78125 324.15625 Z M 417.78125 324.15625 "/>
<path style=" stroke:none;fill-rule:nonzero;fill:rgb(24.705882%,23.921569%,33.72549%);fill-opacity:1;" d="M 411.535156 324.15625 L 409.140625 324.15625 C 408.9375 324.15625 408.773438 323.992188 408.773438 323.789062 L 408.773438 322.644531 C 408.773438 322.441406 408.9375 322.277344 409.140625 322.277344 L 411.535156 322.277344 C 411.734375 322.277344 411.898438 322.441406 411.898438 322.644531 L 411.898438 323.789062 C 411.898438 323.992188 411.734375 324.15625 411.535156 324.15625 Z M 411.535156 324.15625 "/>
<path style=" stroke:none;fill-rule:nonzero;fill:rgb(24.705882%,23.921569%,33.72549%);fill-opacity:1;" d="M 405.285156 324.15625 L 402.890625 324.15625 C 402.691406 324.15625 402.527344 323.992188 402.527344 323.789062 L 402.527344 322.644531 C 402.527344 322.441406 402.691406 322.277344 402.890625 322.277344 L 405.285156 322.277344 C 405.488281 322.277344 405.652344 322.441406 405.652344 322.644531 L 405.652344 323.789062 C 405.652344 323.992188 405.488281 324.15625 405.285156 324.15625 Z M 405.285156 324.15625 "/>
<path style=" stroke:none;fill-rule:nonzero;fill:rgb(24.705882%,23.921569%,33.72549%);fill-opacity:1;" d="M 399.039062 324.15625 L 396.644531 324.15625 C 396.441406 324.15625 396.277344 323.992188 396.277344 323.789062 L 396.277344 322.644531 C 396.277344 322.441406 396.441406 322.277344 396.644531 322.277344 L 399.039062 322.277344 C 399.238281 322.277344 399.402344 322.441406 399.402344 322.644531 L 399.402344 323.789062 C 399.402344 323.992188 399.238281 324.15625 399.039062 324.15625 Z M 399.039062 324.15625 "/>
<path style=" stroke:none;fill-rule:nonzero;fill:rgb(24.705882%,23.921569%,33.72549%);fill-opacity:1;" d="M 392.789062 324.15625 L 390.394531 324.15625 C 390.195312 324.15625 390.03125 323.992188 390.03125 323.789062 L 390.03125 322.644531 C 390.03125 322.441406 390.195312 322.277344 390.394531 322.277344 L 392.789062 322.277344 C 392.992188 322.277344 393.15625 322.441406 393.15625 322.644531 L 393.15625 323.789062 C 393.15625 323.992188 392.992188 324.15625 392.789062 324.15625 Z M 392.789062 324.15625 "/>
<path style=" stroke:none;fill-rule:nonzero;fill:rgb(24.705882%,23.921569%,33.72549%);fill-opacity:1;" d="M 386.542969 324.15625 L 384.148438 324.15625 C 383.945312 324.15625 383.78125 323.992188 383.78125 323.789062 L 383.78125 322.644531 C 383.78125 322.441406 383.945312 322.277344 384.148438 322.277344 L 386.542969 322.277344 C 386.742188 322.277344 386.90625 322.441406 386.90625 322.644531 L 386.90625 323.789062 C 386.90625 323.992188 386.742188 324.15625 386.542969 324.15625 Z M 386.542969 324.15625 "/>
<path style=" stroke:none;fill-rule:nonzero;fill:rgb(24.705882%,23.921569%,33.72549%);fill-opacity:1;" d="M 380.292969 324.15625 L 377.898438 324.15625 C 377.699219 324.15625 377.535156 323.992188 377.535156 323.789062 L 377.535156 322.644531 C 377.535156 322.441406 377.699219 322.277344 377.898438 322.277344 L 380.292969 322.277344 C 380.496094 322.277344 380.660156 322.441406 380.660156 322.644531 L 380.660156 323.789062 C 380.660156 323.992188 380.496094 324.15625 380.292969 324.15625 Z M 380.292969 324.15625 "/>
<path style=" stroke:none;fill-rule:nonzero;fill:rgb(24.705882%,23.921569%,33.72549%);fill-opacity:1;" d="M 374.046875 324.15625 L 371.648438 324.15625 C 371.449219 324.15625 371.285156 323.992188 371.285156 323.789062 L 371.285156 322.644531 C 371.285156 322.441406 371.449219 322.277344 371.648438 322.277344 L 374.046875 322.277344 C 374.246094 322.277344 374.410156 322.441406 374.410156 322.644531 L 374.410156 323.789062 C 374.410156 323.992188 374.246094 324.15625 374.046875 324.15625 Z M 374.046875 324.15625 "/>
<path style=" stroke:none;fill-rule:nonzero;fill:rgb(24.705882%,23.921569%,33.72549%);fill-opacity:1;" d="M 467.84375 327.28125 L 465.445312 327.28125 C 465.246094 327.28125 465.082031 327.117188 465.082031 326.917969 L 465.082031 325.769531 C 465.082031 325.570312 465.246094 325.40625 465.445312 325.40625 L 467.84375 325.40625 C 468.042969 325.40625 468.207031 325.570312 468.207031 325.769531 L 468.207031 326.917969 C 468.207031 327.117188 468.042969 327.28125 467.84375 327.28125 Z M 467.84375 327.28125 "/>
<path style=" stroke:none;fill-rule:nonzero;fill:rgb(24.705882%,23.921569%,33.72549%);fill-opacity:1;" d="M 461.59375 327.28125 L 459.199219 327.28125 C 458.996094 327.28125 458.832031 327.117188 458.832031 326.917969 L 458.832031 325.769531 C 458.832031 325.570312 458.996094 325.40625 459.199219 325.40625 L 461.59375 325.40625 C 461.796875 325.40625 461.957031 325.570312 461.957031 325.769531 L 461.957031 326.917969 C 461.957031 327.117188 461.796875 327.28125 461.59375 327.28125 Z M 461.59375 327.28125 "/>
<path style=" stroke:none;fill-rule:nonzero;fill:rgb(24.705882%,23.921569%,33.72549%);fill-opacity:1;" d="M 455.347656 327.28125 L 452.949219 327.28125 C 452.75 327.28125 452.585938 327.117188 452.585938 326.917969 L 452.585938 325.769531 C 452.585938 325.570312 452.75 325.40625 452.949219 325.40625 L 455.347656 325.40625 C 455.546875 325.40625 455.710938 325.570312 455.710938 325.769531 L 455.710938 326.917969 C 455.710938 327.117188 455.546875 327.28125 455.347656 327.28125 Z M 455.347656 327.28125 "/>
<path style=" stroke:none;fill-rule:nonzero;fill:rgb(24.705882%,23.921569%,33.72549%);fill-opacity:1;" d="M 449.097656 327.28125 L 446.703125 327.28125 C 446.5 327.28125 446.335938 327.117188 446.335938 326.917969 L 446.335938 325.769531 C 446.335938 325.570312 446.5 325.40625 446.703125 325.40625 L 449.097656 325.40625 C 449.296875 325.40625 449.460938 325.570312 449.460938 325.769531 L 449.460938 326.917969 C 449.460938 327.117188 449.296875 327.28125 449.097656 327.28125 Z M 449.097656 327.28125 "/>
<path style=" stroke:none;fill-rule:nonzero;fill:rgb(24.705882%,23.921569%,33.72549%);fill-opacity:1;" d="M 442.847656 327.28125 L 440.453125 327.28125 C 440.253906 327.28125 440.089844 327.117188 440.089844 326.917969 L 440.089844 325.769531 C 440.089844 325.570312 440.253906 325.40625 440.453125 325.40625 L 442.847656 325.40625 C 443.050781 325.40625 443.214844 325.570312 443.214844 325.769531 L 443.214844 326.917969 C 443.214844 327.117188 443.050781 327.28125 442.847656 327.28125 Z M 442.847656 327.28125 "/>
<path style=" stroke:none;fill-rule:nonzero;fill:rgb(24.705882%,23.921569%,33.72549%);fill-opacity:1;" d="M 436.601562 327.28125 L 434.207031 327.28125 C 434.003906 327.28125 433.839844 327.117188 433.839844 326.917969 L 433.839844 325.769531 C 433.839844 325.570312 434.003906 325.40625 434.207031 325.40625 L 436.601562 325.40625 C 436.800781 325.40625 436.964844 325.570312 436.964844 325.769531 L 436.964844 326.917969 C 436.964844 327.117188 436.800781 327.28125 436.601562 327.28125 Z M 436.601562 327.28125 "/>
<path style=" stroke:none;fill-rule:nonzero;fill:rgb(24.705882%,23.921569%,33.72549%);fill-opacity:1;" d="M 430.351562 327.28125 L 427.957031 327.28125 C 427.757812 327.28125 427.59375 327.117188 427.59375 326.917969 L 427.59375 325.769531 C 427.59375 325.570312 427.757812 325.40625 427.957031 325.40625 L 430.351562 325.40625 C 430.554688 325.40625 430.71875 325.570312 430.71875 325.769531 L 430.71875 326.917969 C 430.71875 327.117188 430.554688 327.28125 430.351562 327.28125 Z M 430.351562 327.28125 "/>
<path style=" stroke:none;fill-rule:nonzero;fill:rgb(24.705882%,23.921569%,33.72549%);fill-opacity:1;" d="M 424.105469 327.28125 L 421.710938 327.28125 C 421.507812 327.28125 421.34375 327.117188 421.34375 326.917969 L 421.34375 325.769531 C 421.34375 325.570312 421.507812 325.40625 421.710938 325.40625 L 424.105469 325.40625 C 424.304688 325.40625 424.46875 325.570312 424.46875 325.769531 L 424.46875 326.917969 C 424.46875 327.117188 424.304688 327.28125 424.105469 327.28125 Z M 424.105469 327.28125 "/>
<path style=" stroke:none;fill-rule:nonzero;fill:rgb(24.705882%,23.921569%,33.72549%);fill-opacity:1;" d="M 417.855469 327.28125 L 415.460938 327.28125 C 415.261719 327.28125 415.097656 327.117188 415.097656 326.917969 L 415.097656 325.769531 C 415.097656 325.570312 415.261719 325.40625 415.460938 325.40625 L 417.855469 325.40625 C 418.058594 325.40625 418.222656 325.570312 418.222656 325.769531 L 418.222656 326.917969 C 418.222656 327.117188 418.058594 327.28125 417.855469 327.28125 Z M 417.855469 327.28125 "/>
<path style=" stroke:none;fill-rule:nonzero;fill:rgb(24.705882%,23.921569%,33.72549%);fill-opacity:1;" d="M 411.609375 327.28125 L 409.214844 327.28125 C 409.011719 327.28125 408.847656 327.117188 408.847656 326.917969 L 408.847656 325.769531 C 408.847656 325.570312 409.011719 325.40625 409.214844 325.40625 L 411.609375 325.40625 C 411.808594 325.40625 411.972656 325.570312 411.972656 325.769531 L 411.972656 326.917969 C 411.972656 327.117188 411.808594 327.28125 411.609375 327.28125 Z M 411.609375 327.28125 "/>
<path style=" stroke:none;fill-rule:nonzero;fill:rgb(24.705882%,23.921569%,33.72549%);fill-opacity:1;" d="M 405.359375 327.28125 L 402.964844 327.28125 C 402.765625 327.28125 402.601562 327.117188 402.601562 326.917969 L 402.601562 325.769531 C 402.601562 325.570312 402.765625 325.40625 402.964844 325.40625 L 405.359375 325.40625 C 405.5625 325.40625 405.726562 325.570312 405.726562 325.769531 L 405.726562 326.917969 C 405.726562 327.117188 405.5625 327.28125 405.359375 327.28125 Z M 405.359375 327.28125 "/>
<path style=" stroke:none;fill-rule:nonzero;fill:rgb(24.705882%,23.921569%,33.72549%);fill-opacity:1;" d="M 399.113281 327.28125 L 396.714844 327.28125 C 396.515625 327.28125 396.351562 327.117188 396.351562 326.917969 L 396.351562 325.769531 C 396.351562 325.570312 396.515625 325.40625 396.714844 325.40625 L 399.113281 325.40625 C 399.3125 325.40625 399.476562 325.570312 399.476562 325.769531 L 399.476562 326.917969 C 399.476562 327.117188 399.3125 327.28125 399.113281 327.28125 Z M 399.113281 327.28125 "/>
<path style=" stroke:none;fill-rule:nonzero;fill:rgb(24.705882%,23.921569%,33.72549%);fill-opacity:1;" d="M 392.863281 327.28125 L 390.46875 327.28125 C 390.265625 327.28125 390.105469 327.117188 390.105469 326.917969 L 390.105469 325.769531 C 390.105469 325.570312 390.265625 325.40625 390.46875 325.40625 L 392.863281 325.40625 C 393.066406 325.40625 393.226562 325.570312 393.226562 325.769531 L 393.226562 326.917969 C 393.226562 327.117188 393.066406 327.28125 392.863281 327.28125 Z M 392.863281 327.28125 "/>
<path style=" stroke:none;fill-rule:nonzero;fill:rgb(24.705882%,23.921569%,33.72549%);fill-opacity:1;" d="M 386.617188 327.28125 L 384.21875 327.28125 C 384.019531 327.28125 383.855469 327.117188 383.855469 326.917969 L 383.855469 325.769531 C 383.855469 325.570312 384.019531 325.40625 384.21875 325.40625 L 386.617188 325.40625 C 386.816406 325.40625 386.980469 325.570312 386.980469 325.769531 L 386.980469 326.917969 C 386.980469 327.117188 386.816406 327.28125 386.617188 327.28125 Z M 386.617188 327.28125 "/>
<path style=" stroke:none;fill-rule:nonzero;fill:rgb(24.705882%,23.921569%,33.72549%);fill-opacity:1;" d="M 380.367188 327.28125 L 377.972656 327.28125 C 377.769531 327.28125 377.609375 327.117188 377.609375 326.917969 L 377.609375 325.769531 C 377.609375 325.570312 377.769531 325.40625 377.972656 325.40625 L 380.367188 325.40625 C 380.570312 325.40625 380.730469 325.570312 380.730469 325.769531 L 380.730469 326.917969 C 380.730469 327.117188 380.570312 327.28125 380.367188 327.28125 Z M 380.367188 327.28125 "/>
<path style=" stroke:none;fill-rule:nonzero;fill:rgb(24.705882%,23.921569%,33.72549%);fill-opacity:1;" d="M 374.121094 327.28125 L 371.722656 327.28125 C 371.523438 327.28125 371.359375 327.117188 371.359375 326.917969 L 371.359375 325.769531 C 371.359375 325.570312 371.523438 325.40625 371.722656 325.40625 L 374.121094 325.40625 C 374.320312 325.40625 374.484375 325.570312 374.484375 325.769531 L 374.484375 326.917969 C 374.484375 327.117188 374.320312 327.28125 374.121094 327.28125 Z M 374.121094 327.28125 "/>
<path style=" stroke:none;fill-rule:nonzero;fill:rgb(24.705882%,23.921569%,33.72549%);fill-opacity:1;" d="M 437.851562 331.035156 L 413.585938 331.035156 C 413.386719 331.035156 413.222656 330.871094 413.222656 330.667969 L 413.222656 329.523438 C 413.222656 329.320312 413.386719 329.15625 413.585938 329.15625 L 437.851562 329.15625 C 438.050781 329.15625 438.214844 329.320312 438.214844 329.523438 L 438.214844 330.667969 C 438.214844 330.871094 438.050781 331.035156 437.851562 331.035156 Z M 437.851562 331.035156 "/>
<path style=" stroke:none;fill-rule:nonzero;fill:rgb(100%,100%,100%);fill-opacity:1;" d="M 385.757812 267.796875 L 387.878906 267.796875 C 388.523438 267.796875 389.042969 268.320312 389.042969 268.964844 C 389.042969 269.609375 388.523438 270.128906 387.878906 270.128906 L 385.757812 270.128906 C 385.117188 270.128906 384.59375 269.609375 384.59375 268.964844 C 384.59375 268.320312 385.117188 267.796875 385.757812 267.796875 Z M 385.757812 267.796875 "/>
<path style=" stroke:none;fill-rule:nonzero;fill:rgb(100%,100%,100%);fill-opacity:1;" d="M 410.015625 267.796875 L 412.136719 267.796875 C 412.78125 267.796875 413.300781 268.320312 413.300781 268.964844 C 413.300781 269.609375 412.78125 270.128906 412.136719 270.128906 L 410.015625 270.128906 C 409.375 270.128906 408.851562 269.609375 408.851562 268.964844 C 408.851562 268.320312 409.375 267.796875 410.015625 267.796875 Z M 410.015625 267.796875 "/>
<path style=" stroke:none;fill-rule:nonzero;fill:rgb(100%,100%,100%);fill-opacity:1;" d="M 416.890625 267.796875 L 419.011719 267.796875 C 419.652344 267.796875 420.175781 268.320312 420.175781 268.964844 C 420.175781 269.609375 419.652344 270.128906 419.011719 270.128906 L 416.890625 270.128906 C 416.246094 270.128906 415.726562 269.609375 415.726562 268.964844 C 415.726562 268.320312 416.246094 267.796875 416.890625 267.796875 Z M 416.890625 267.796875 "/>
<path style=" stroke:none;fill-rule:nonzero;fill:rgb(100%,100%,100%);fill-opacity:1;" d="M 392.355469 267.605469 L 405.539062 267.605469 C 406.183594 267.605469 406.703125 268.125 406.703125 268.769531 C 406.703125 269.414062 406.183594 269.933594 405.539062 269.933594 L 392.355469 269.933594 C 391.714844 269.933594 391.191406 269.414062 391.191406 268.769531 C 391.191406 268.125 391.714844 267.605469 392.355469 267.605469 Z M 392.355469 267.605469 "/>
<path style=" stroke:none;fill-rule:nonzero;fill:rgb(100%,100%,100%);fill-opacity:1;" d="M 424.699219 267.605469 L 437.882812 267.605469 C 438.527344 267.605469 439.046875 268.125 439.046875 268.769531 C 439.046875 269.414062 438.527344 269.933594 437.882812 269.933594 L 424.699219 269.933594 C 424.058594 269.933594 423.535156 269.414062 423.535156 268.769531 C 423.535156 268.125 424.058594 267.605469 424.699219 267.605469 Z M 424.699219 267.605469 "/>
<path style=" stroke:none;fill-rule:nonzero;fill:rgb(100%,100%,100%);fill-opacity:1;" d="M 392.226562 273.058594 L 394.347656 273.058594 C 394.992188 273.058594 395.511719 273.582031 395.511719 274.222656 C 395.511719 274.867188 394.992188 275.390625 394.347656 275.390625 L 392.226562 275.390625 C 391.585938 275.390625 391.0625 274.867188 391.0625 274.222656 C 391.0625 273.582031 391.585938 273.058594 392.226562 273.058594 Z M 392.226562 273.058594 "/>
<path style=" stroke:none;fill-rule:nonzero;fill:rgb(100%,100%,100%);fill-opacity:1;" d="M 416.484375 273.058594 L 418.605469 273.058594 C 419.25 273.058594 419.769531 273.582031 419.769531 274.222656 C 419.769531 274.867188 419.25 275.390625 418.605469 275.390625 L 416.484375 275.390625 C 415.84375 275.390625 415.320312 274.867188 415.320312 274.222656 C 415.320312 273.582031 415.84375 273.058594 416.484375 273.058594 Z M 416.484375 273.058594 "/>
<path style=" stroke:none;fill-rule:nonzero;fill:rgb(100%,100%,100%);fill-opacity:1;" d="M 423.359375 273.058594 L 425.480469 273.058594 C 426.121094 273.058594 426.644531 273.582031 426.644531 274.222656 C 426.644531 274.867188 426.121094 275.390625 425.480469 275.390625 L 423.359375 275.390625 C 422.714844 275.390625 422.195312 274.867188 422.195312 274.222656 C 422.195312 273.582031 422.714844 273.058594 423.359375 273.058594 Z M 423.359375 273.058594 "/>
<path style=" stroke:none;fill-rule:nonzero;fill:rgb(100%,100%,100%);fill-opacity:1;" d="M 398.824219 272.863281 L 412.007812 272.863281 C 412.652344 272.863281 413.171875 273.386719 413.171875 274.03125 C 413.171875 274.671875 412.652344 275.195312 412.007812 275.195312 L 398.824219 275.195312 C 398.183594 275.195312 397.660156 274.671875 397.660156 274.03125 C 397.660156 273.386719 398.183594 272.863281 398.824219 272.863281 Z M 398.824219 272.863281 "/>
<path style=" stroke:none;fill-rule:nonzero;fill:rgb(100%,100%,100%);fill-opacity:1;" d="M 431.167969 272.863281 L 444.351562 272.863281 C 444.996094 272.863281 445.515625 273.386719 445.515625 274.03125 C 445.515625 274.671875 444.996094 275.195312 444.351562 275.195312 L 431.167969 275.195312 C 430.527344 275.195312 430.003906 274.671875 430.003906 274.03125 C 430.003906 273.386719 430.527344 272.863281 431.167969 272.863281 Z M 431.167969 272.863281 "/>
<path style=" stroke:none;fill-rule:nonzero;fill:rgb(100%,100%,100%);fill-opacity:1;" d="M 398.695312 278.320312 L 400.816406 278.320312 C 401.460938 278.320312 401.980469 278.839844 401.980469 279.484375 C 401.980469 280.128906 401.460938 280.648438 400.816406 280.648438 L 398.695312 280.648438 C 398.054688 280.648438 397.53125 280.128906 397.53125 279.484375 C 397.53125 278.839844 398.054688 278.320312 398.695312 278.320312 Z M 398.695312 278.320312 "/>
<path style=" stroke:none;fill-rule:nonzero;fill:rgb(100%,100%,100%);fill-opacity:1;" d="M 422.953125 278.320312 L 425.074219 278.320312 C 425.71875 278.320312 426.238281 278.839844 426.238281 279.484375 C 426.238281 280.128906 425.71875 280.648438 425.074219 280.648438 L 422.953125 280.648438 C 422.3125 280.648438 421.789062 280.128906 421.789062 279.484375 C 421.789062 278.839844 422.3125 278.320312 422.953125 278.320312 Z M 422.953125 278.320312 "/>
<path style=" stroke:none;fill-rule:nonzero;fill:rgb(100%,100%,100%);fill-opacity:1;" d="M 429.828125 278.320312 L 431.949219 278.320312 C 432.589844 278.320312 433.113281 278.839844 433.113281 279.484375 C 433.113281 280.128906 432.589844 280.648438 431.949219 280.648438 L 429.828125 280.648438 C 429.183594 280.648438 428.664062 280.128906 428.664062 279.484375 C 428.664062 278.839844 429.183594 278.320312 429.828125 278.320312 Z M 429.828125 278.320312 "/>
<path style=" stroke:none;fill-rule:nonzero;fill:rgb(100%,100%,100%);fill-opacity:1;" d="M 405.292969 278.125 L 418.476562 278.125 C 419.121094 278.125 419.640625 278.648438 419.640625 279.289062 C 419.640625 279.933594 419.121094 280.457031 418.476562 280.457031 L 405.292969 280.457031 C 404.652344 280.457031 404.128906 279.933594 404.128906 279.289062 C 404.128906 278.648438 404.652344 278.125 405.292969 278.125 Z M 405.292969 278.125 "/>
<path style=" stroke:none;fill-rule:nonzero;fill:rgb(100%,100%,100%);fill-opacity:1;" d="M 437.636719 278.125 L 450.820312 278.125 C 451.464844 278.125 451.984375 278.648438 451.984375 279.289062 C 451.984375 279.933594 451.464844 280.457031 450.820312 280.457031 L 437.636719 280.457031 C 436.996094 280.457031 436.472656 279.933594 436.472656 279.289062 C 436.472656 278.648438 436.996094 278.125 437.636719 278.125 Z M 437.636719 278.125 "/>
<path style=" stroke:none;fill-rule:nonzero;fill:rgb(100%,100%,100%);fill-opacity:1;" d="M 405.164062 283.578125 L 407.285156 283.578125 C 407.929688 283.578125 408.449219 284.101562 408.449219 284.746094 C 408.449219 285.386719 407.929688 285.910156 407.285156 285.910156 L 405.164062 285.910156 C 404.523438 285.910156 404 285.386719 404 284.746094 C 404 284.101562 404.523438 283.578125 405.164062 283.578125 Z M 405.164062 283.578125 "/>
<path style=" stroke:none;fill-rule:nonzero;fill:rgb(100%,100%,100%);fill-opacity:1;" d="M 429.421875 283.578125 L 431.542969 283.578125 C 432.1875 283.578125 432.707031 284.101562 432.707031 284.746094 C 432.707031 285.386719 432.1875 285.910156 431.542969 285.910156 L 429.421875 285.910156 C 428.78125 285.910156 428.257812 285.386719 428.257812 284.746094 C 428.257812 284.101562 428.78125 283.578125 429.421875 283.578125 Z M 429.421875 283.578125 "/>
<path style=" stroke:none;fill-rule:nonzero;fill:rgb(100%,100%,100%);fill-opacity:1;" d="M 436.296875 283.578125 L 438.417969 283.578125 C 439.058594 283.578125 439.582031 284.101562 439.582031 284.746094 C 439.582031 285.386719 439.058594 285.910156 438.417969 285.910156 L 436.296875 285.910156 C 435.652344 285.910156 435.132812 285.386719 435.132812 284.746094 C 435.132812 284.101562 435.652344 283.578125 436.296875 283.578125 Z M 436.296875 283.578125 "/>
<path style=" stroke:none;fill-rule:nonzero;fill:rgb(100%,100%,100%);fill-opacity:1;" d="M 411.761719 283.386719 L 424.945312 283.386719 C 425.589844 283.386719 426.109375 283.90625 426.109375 284.550781 C 426.109375 285.195312 425.589844 285.714844 424.945312 285.714844 L 411.761719 285.714844 C 411.121094 285.714844 410.597656 285.195312 410.597656 284.550781 C 410.597656 283.90625 411.121094 283.386719 411.761719 283.386719 Z M 411.761719 283.386719 "/>
<path style=" stroke:none;fill-rule:nonzero;fill:rgb(100%,100%,100%);fill-opacity:1;" d="M 410.015625 304.496094 L 412.136719 304.496094 C 412.78125 304.496094 413.300781 305.019531 413.300781 305.664062 C 413.300781 306.304688 412.78125 306.828125 412.136719 306.828125 L 410.015625 306.828125 C 409.375 306.828125 408.851562 306.304688 408.851562 305.664062 C 408.851562 305.019531 409.375 304.496094 410.015625 304.496094 Z M 410.015625 304.496094 "/>
<path style=" stroke:none;fill-rule:nonzero;fill:rgb(100%,100%,100%);fill-opacity:1;" d="M 416.890625 304.496094 L 419.011719 304.496094 C 419.652344 304.496094 420.175781 305.019531 420.175781 305.664062 C 420.175781 306.304688 419.652344 306.828125 419.011719 306.828125 L 416.890625 306.828125 C 416.246094 306.828125 415.726562 306.304688 415.726562 305.664062 C 415.726562 305.019531 416.246094 304.496094 416.890625 304.496094 Z M 416.890625 304.496094 "/>
<path style=" stroke:none;fill-rule:nonzero;fill:rgb(100%,100%,100%);fill-opacity:1;" d="M 424.699219 304.691406 L 437.882812 304.691406 C 438.527344 304.691406 439.046875 305.214844 439.046875 305.855469 C 439.046875 306.5 438.527344 307.023438 437.882812 307.023438 L 424.699219 307.023438 C 424.058594 307.023438 423.535156 306.5 423.535156 305.855469 C 423.535156 305.214844 424.058594 304.691406 424.699219 304.691406 Z M 424.699219 304.691406 "/>
<path style=" stroke:none;fill-rule:nonzero;fill:rgb(100%,100%,100%);fill-opacity:1;" d="M 385.757812 304.496094 L 387.878906 304.496094 C 388.523438 304.496094 389.042969 305.019531 389.042969 305.664062 C 389.042969 306.304688 388.523438 306.828125 387.878906 306.828125 L 385.757812 306.828125 C 385.117188 306.828125 384.59375 306.304688 384.59375 305.664062 C 384.59375 305.019531 385.117188 304.496094 385.757812 304.496094 Z M 385.757812 304.496094 "/>
<path style=" stroke:none;fill-rule:nonzero;fill:rgb(100%,100%,100%);fill-opacity:1;" d="M 392.355469 304.691406 L 405.539062 304.691406 C 406.183594 304.691406 406.703125 305.214844 406.703125 305.855469 C 406.703125 306.5 406.183594 307.023438 405.539062 307.023438 L 392.355469 307.023438 C 391.714844 307.023438 391.191406 306.5 391.191406 305.855469 C 391.191406 305.214844 391.714844 304.691406 392.355469 304.691406 Z M 392.355469 304.691406 "/>
<path style=" stroke:none;fill-rule:nonzero;fill:rgb(100%,100%,100%);fill-opacity:1;" d="M 392.226562 299.238281 L 394.347656 299.238281 C 394.992188 299.238281 395.511719 299.757812 395.511719 300.402344 C 395.511719 301.046875 394.992188 301.566406 394.347656 301.566406 L 392.226562 301.566406 C 391.585938 301.566406 391.0625 301.046875 391.0625 300.402344 C 391.0625 299.757812 391.585938 299.238281 392.226562 299.238281 Z M 392.226562 299.238281 "/>
<path style=" stroke:none;fill-rule:nonzero;fill:rgb(100%,100%,100%);fill-opacity:1;" d="M 416.484375 299.238281 L 418.605469 299.238281 C 419.25 299.238281 419.769531 299.757812 419.769531 300.402344 C 419.769531 301.046875 419.25 301.566406 418.605469 301.566406 L 416.484375 301.566406 C 415.84375 301.566406 415.320312 301.046875 415.320312 300.402344 C 415.320312 299.757812 415.84375 299.238281 416.484375 299.238281 Z M 416.484375 299.238281 "/>
<path style=" stroke:none;fill-rule:nonzero;fill:rgb(100%,100%,100%);fill-opacity:1;" d="M 423.359375 299.238281 L 425.480469 299.238281 C 426.121094 299.238281 426.644531 299.757812 426.644531 300.402344 C 426.644531 301.046875 426.121094 301.566406 425.480469 301.566406 L 423.359375 301.566406 C 422.714844 301.566406 422.195312 301.046875 422.195312 300.402344 C 422.195312 299.757812 422.714844 299.238281 423.359375 299.238281 Z M 423.359375 299.238281 "/>
<path style=" stroke:none;fill-rule:nonzero;fill:rgb(100%,100%,100%);fill-opacity:1;" d="M 398.824219 299.429688 L 412.007812 299.429688 C 412.652344 299.429688 413.171875 299.953125 413.171875 300.597656 C 413.171875 301.238281 412.652344 301.761719 412.007812 301.761719 L 398.824219 301.761719 C 398.183594 301.761719 397.660156 301.238281 397.660156 300.597656 C 397.660156 299.953125 398.183594 299.429688 398.824219 299.429688 Z M 398.824219 299.429688 "/>
<path style=" stroke:none;fill-rule:nonzero;fill:rgb(100%,100%,100%);fill-opacity:1;" d="M 398.695312 293.976562 L 400.816406 293.976562 C 401.460938 293.976562 401.980469 294.496094 401.980469 295.140625 C 401.980469 295.785156 401.460938 296.308594 400.816406 296.308594 L 398.695312 296.308594 C 398.054688 296.308594 397.53125 295.785156 397.53125 295.140625 C 397.53125 294.496094 398.054688 293.976562 398.695312 293.976562 Z M 398.695312 293.976562 "/>
<path style=" stroke:none;fill-rule:nonzero;fill:rgb(100%,100%,100%);fill-opacity:1;" d="M 422.953125 293.976562 L 425.074219 293.976562 C 425.71875 293.976562 426.238281 294.496094 426.238281 295.140625 C 426.238281 295.785156 425.71875 296.308594 425.074219 296.308594 L 422.953125 296.308594 C 422.3125 296.308594 421.789062 295.785156 421.789062 295.140625 C 421.789062 294.496094 422.3125 293.976562 422.953125 293.976562 Z M 422.953125 293.976562 "/>
<path style=" stroke:none;fill-rule:nonzero;fill:rgb(100%,100%,100%);fill-opacity:1;" d="M 429.828125 293.976562 L 431.949219 293.976562 C 432.589844 293.976562 433.113281 294.496094 433.113281 295.140625 C 433.113281 295.785156 432.589844 296.308594 431.949219 296.308594 L 429.828125 296.308594 C 429.183594 296.308594 428.664062 295.785156 428.664062 295.140625 C 428.664062 294.496094 429.183594 293.976562 429.828125 293.976562 Z M 429.828125 293.976562 "/>
<path style=" stroke:none;fill-rule:nonzero;fill:rgb(100%,100%,100%);fill-opacity:1;" d="M 405.292969 294.171875 L 418.476562 294.171875 C 419.121094 294.171875 419.640625 294.691406 419.640625 295.335938 C 419.640625 295.980469 419.121094 296.5 418.476562 296.5 L 405.292969 296.5 C 404.652344 296.5 404.128906 295.980469 404.128906 295.335938 C 404.128906 294.691406 404.652344 294.171875 405.292969 294.171875 Z M 405.292969 294.171875 "/>
<path style=" stroke:none;fill-rule:nonzero;fill:rgb(100%,100%,100%);fill-opacity:1;" d="M 405.164062 288.714844 L 407.285156 288.714844 C 407.929688 288.714844 408.449219 289.238281 408.449219 289.882812 C 408.449219 290.523438 407.929688 291.046875 407.285156 291.046875 L 405.164062 291.046875 C 404.523438 291.046875 404 290.523438 404 289.882812 C 404 289.238281 404.523438 288.714844 405.164062 288.714844 Z M 405.164062 288.714844 "/>
<path style=" stroke:none;fill-rule:nonzero;fill:rgb(100%,100%,100%);fill-opacity:1;" d="M 429.421875 288.714844 L 431.542969 288.714844 C 432.1875 288.714844 432.707031 289.238281 432.707031 289.882812 C 432.707031 290.523438 432.1875 291.046875 431.542969 291.046875 L 429.421875 291.046875 C 428.78125 291.046875 428.257812 290.523438 428.257812 289.882812 C 428.257812 289.238281 428.78125 288.714844 429.421875 288.714844 Z M 429.421875 288.714844 "/>
<path style=" stroke:none;fill-rule:nonzero;fill:rgb(100%,100%,100%);fill-opacity:1;" d="M 436.296875 288.714844 L 438.417969 288.714844 C 439.058594 288.714844 439.582031 289.238281 439.582031 289.882812 C 439.582031 290.523438 439.058594 291.046875 438.417969 291.046875 L 436.296875 291.046875 C 435.652344 291.046875 435.132812 290.523438 435.132812 289.882812 C 435.132812 289.238281 435.652344 288.714844 436.296875 288.714844 Z M 436.296875 288.714844 "/>
<path style=" stroke:none;fill-rule:nonzero;fill:rgb(100%,100%,100%);fill-opacity:1;" d="M 411.761719 288.910156 L 424.945312 288.910156 C 425.589844 288.910156 426.109375 289.433594 426.109375 290.074219 C 426.109375 290.71875 425.589844 291.242188 424.945312 291.242188 L 411.761719 291.242188 C 411.121094 291.242188 410.597656 290.71875 410.597656 290.074219 C 410.597656 289.433594 411.121094 288.910156 411.761719 288.910156 Z M 411.761719 288.910156 "/>
<path style=" stroke:none;fill-rule:nonzero;fill:rgb(100%,71.372549%,71.372549%);fill-opacity:1;" d="M 376.601562 366.144531 L 366.644531 350.394531 L 397.898438 325.457031 L 410.800781 311.15625 C 414.210938 307.371094 419.375 305.691406 424.355469 306.742188 C 429.335938 307.792969 433.382812 311.414062 434.980469 316.25 C 437.394531 323.574219 433.578125 331.496094 426.347656 334.160156 L 405.949219 341.683594 Z M 376.601562 366.144531 "/>
<path style=" stroke:none;fill-rule:nonzero;fill:rgb(18.431373%,18.039216%,25.490196%);fill-opacity:1;" d="M 142.976562 251.929688 L 142.976562 328.492188 L 196.566406 328.492188 L 196.566406 251.929688 C 196.570312 250.800781 195.832031 249.800781 194.753906 249.46875 C 194.507812 249.386719 194.246094 249.34375 193.984375 249.347656 L 145.5625 249.347656 C 144.136719 249.34375 142.976562 250.5 142.976562 251.929688 Z M 163.890625 278.238281 C 163.917969 275.097656 166.472656 272.566406 169.609375 272.566406 C 172.75 272.566406 175.300781 275.097656 175.332031 278.238281 L 175.332031 287.121094 C 175.316406 290.273438 172.757812 292.816406 169.609375 292.816406 C 166.460938 292.816406 163.90625 290.273438 163.890625 287.121094 Z M 163.890625 278.238281 "/>
<path style=" stroke:none;fill-rule:nonzero;fill:rgb(24.705882%,23.921569%,33.72549%);fill-opacity:1;" d="M 142.8125 326.042969 L 142.8125 333.425781 C 142.8125 334.222656 143.457031 334.867188 144.25 334.875 L 195.292969 334.875 C 196.085938 334.871094 196.730469 334.222656 196.730469 333.425781 L 196.730469 326.042969 Z M 142.8125 326.042969 "/>
<path style=" stroke:none;fill-rule:nonzero;fill:rgb(24.705882%,23.921569%,33.72549%);fill-opacity:1;" d="M 58.671875 136.582031 L 58.671875 276.371094 C 58.671875 280.082031 61.675781 283.085938 65.382812 283.089844 L 272.363281 283.089844 C 276.066406 283.085938 279.070312 280.082031 279.074219 276.371094 L 279.074219 136.582031 C 279.066406 132.875 276.066406 129.875 272.363281 129.871094 L 65.382812 129.871094 C 61.679688 129.875 58.679688 132.875 58.671875 136.582031 Z M 58.671875 136.582031 "/>
<path style=" stroke:none;fill-rule:nonzero;fill:rgb(100%,100%,100%);fill-opacity:1;" d="M 63.527344 138.320312 L 63.527344 274.648438 C 63.527344 276.628906 65.132812 278.234375 67.113281 278.238281 L 270.640625 278.238281 C 272.617188 278.234375 274.222656 276.628906 274.226562 274.648438 L 274.226562 138.320312 C 274.226562 136.335938 272.621094 134.726562 270.640625 134.722656 L 67.113281 134.722656 C 65.132812 134.726562 63.527344 136.335938 63.527344 138.320312 Z M 63.527344 138.320312 "/>
<path style=" stroke:none;fill-rule:nonzero;fill:rgb(18.431373%,18.039216%,25.490196%);fill-opacity:1;" d="M 101.296875 334.375 C 101.714844 334.902344 102.355469 335.207031 103.027344 335.203125 L 224.113281 335.203125 C 224.78125 335.203125 225.417969 334.898438 225.839844 334.378906 C 226.261719 333.855469 226.425781 333.171875 226.289062 332.515625 L 224.410156 323.578125 C 224.25 322.839844 223.730469 322.230469 223.023438 321.960938 C 222.769531 321.859375 222.503906 321.8125 222.230469 321.8125 L 104.898438 321.8125 C 104.628906 321.8125 104.359375 321.859375 104.109375 321.960938 C 103.402344 322.230469 102.878906 322.839844 102.722656 323.578125 L 100.839844 332.515625 C 100.707031 333.171875 100.875 333.855469 101.296875 334.375 Z M 101.296875 334.375 "/>
<path style=" stroke:none;fill-rule:nonzero;fill:rgb(24.705882%,23.921569%,33.72549%);fill-opacity:1;" d="M 264.035156 153.5 L 73.597656 153.5 C 73.183594 153.492188 72.855469 153.15625 72.855469 152.742188 C 72.855469 152.332031 73.183594 151.996094 73.597656 151.984375 L 264.035156 151.984375 C 264.445312 151.996094 264.773438 152.332031 264.773438 152.742188 C 264.773438 153.15625 264.445312 153.492188 264.035156 153.5 Z M 264.035156 153.5 "/>
<path style=" stroke:none;fill-rule:nonzero;fill:rgb(24.705882%,23.921569%,33.72549%);fill-opacity:1;" d="M 90.996094 143.574219 C 90.996094 141.066406 89.011719 139.035156 86.558594 139.035156 C 84.109375 139.035156 82.121094 141.066406 82.121094 143.574219 C 82.121094 146.082031 84.109375 148.117188 86.558594 148.117188 C 89.011719 148.117188 90.996094 146.082031 90.996094 143.574219 Z M 90.996094 143.574219 "/>
<path style=" stroke:none;fill-rule:nonzero;fill:rgb(24.705882%,23.921569%,33.72549%);fill-opacity:1;" d="M 106.328125 143.574219 C 106.328125 141.066406 104.34375 139.035156 101.890625 139.035156 C 99.441406 139.035156 97.453125 141.066406 97.453125 143.574219 C 97.453125 146.082031 99.441406 148.117188 101.890625 148.117188 C 104.34375 148.117188 106.328125 146.082031 106.328125 143.574219 Z M 106.328125 143.574219 "/>
<path style=" stroke:none;fill-rule:nonzero;fill:rgb(24.705882%,23.921569%,33.72549%);fill-opacity:1;" d="M 121.660156 143.574219 C 121.660156 141.066406 119.675781 139.035156 117.222656 139.035156 C 114.773438 139.035156 112.785156 141.066406 112.785156 143.574219 C 112.785156 146.082031 114.773438 148.117188 117.222656 148.117188 C 119.675781 148.117188 121.660156 146.082031 121.660156 143.574219 Z M 121.660156 143.574219 "/>
<path style=" stroke:none;fill-rule:nonzero;fill:rgb(24.705882%,23.921569%,33.72549%);fill-opacity:1;" d="M 254.800781 140.15625 L 243.910156 140.15625 C 243.464844 140.167969 243.105469 140.535156 243.105469 140.980469 C 243.105469 141.429688 243.464844 141.796875 243.910156 141.804688 L 254.800781 141.804688 C 255.253906 141.800781 255.613281 141.433594 255.613281 140.980469 C 255.613281 140.53125 255.253906 140.164062 254.800781 140.15625 Z M 254.800781 140.15625 "/>
<path style=" stroke:none;fill-rule:nonzero;fill:rgb(24.705882%,23.921569%,33.72549%);fill-opacity:1;" d="M 254.800781 143.253906 L 243.910156 143.253906 C 243.464844 143.265625 243.105469 143.632812 243.105469 144.078125 C 243.105469 144.527344 243.464844 144.894531 243.910156 144.90625 L 254.800781 144.90625 C 255.253906 144.898438 255.617188 144.53125 255.617188 144.078125 C 255.617188 143.628906 255.253906 143.261719 254.800781 143.253906 Z M 254.800781 143.253906 "/>
<path style=" stroke:none;fill-rule:nonzero;fill:rgb(24.705882%,23.921569%,33.72549%);fill-opacity:1;" d="M 254.800781 146.351562 L 243.910156 146.351562 C 243.464844 146.363281 243.105469 146.730469 243.105469 147.175781 C 243.105469 147.625 243.464844 147.992188 243.910156 148.003906 L 254.800781 148.003906 C 255.253906 147.996094 255.613281 147.628906 255.613281 147.175781 C 255.613281 146.726562 255.253906 146.359375 254.800781 146.351562 Z M 254.800781 146.351562 "/>
<path style=" stroke:none;fill-rule:nonzero;fill:rgb(18.431373%,18.039216%,25.490196%);fill-opacity:1;" d="M 517.332031 329.285156 C 518.007812 331.25 519.871094 332.554688 521.945312 332.515625 L 541.703125 332.007812 C 543.796875 331.96875 545.613281 330.550781 546.164062 328.53125 L 548.960938 298.605469 C 549.953125 299.054688 551.03125 299.277344 552.121094 299.257812 C 556.101562 299.15625 559.246094 295.847656 559.144531 291.863281 C 559.046875 287.882812 555.738281 284.734375 551.761719 284.835938 C 551.324219 284.835938 550.890625 284.878906 550.464844 284.972656 C 549.527344 283.957031 548.207031 283.386719 546.828125 283.402344 L 516.433594 284.1875 C 516.183594 284.195312 515.933594 284.226562 515.683594 284.28125 C 514.335938 284.53125 513.164062 285.355469 512.464844 286.539062 C 511.769531 287.71875 511.617188 289.148438 512.050781 290.449219 Z M 549.535156 296.574219 L 551.523438 289.441406 C 551.75 288.621094 551.753906 287.75 551.539062 286.925781 C 551.636719 286.921875 551.722656 286.878906 551.816406 286.878906 C 554.65625 286.820312 557.011719 289.070312 557.078125 291.914062 C 557.144531 294.757812 554.898438 297.117188 552.058594 297.191406 C 551.175781 297.21875 550.304688 297.007812 549.535156 296.574219 Z M 549.535156 296.574219 "/>
<path style=" stroke:none;fill-rule:nonzero;fill:rgb(24.705882%,23.921569%,33.72549%);fill-opacity:1;" d="M 515.683594 284.28125 C 516.332031 287.984375 523.613281 290.589844 532.367188 290.136719 C 540.417969 289.765625 547 286.9375 548.207031 283.585938 C 547.757812 283.453125 547.296875 283.390625 546.828125 283.402344 L 516.433594 284.1875 C 516.183594 284.195312 515.933594 284.226562 515.683594 284.28125 Z M 515.683594 284.28125 "/>
<path style=" stroke:none;fill-rule:nonzero;fill:rgb(20.784314%,97.647059%,14.901961%);fill-opacity:1;" d="M 533.972656 312.839844 C 534.011719 312.828125 534.050781 312.8125 534.085938 312.789062 L 538.375 309.980469 C 538.480469 309.910156 538.542969 309.792969 538.542969 309.667969 C 538.542969 309.539062 538.480469 309.421875 538.375 309.355469 L 533.914062 306.429688 C 533.804688 306.355469 533.660156 306.347656 533.542969 306.410156 C 533.421875 306.46875 533.34375 306.585938 533.335938 306.722656 C 533.332031 306.855469 533.394531 306.980469 533.507812 307.054688 L 537.492188 309.667969 L 533.675781 312.164062 C 533.523438 312.265625 533.464844 312.460938 533.539062 312.628906 C 533.613281 312.792969 533.796875 312.882812 533.972656 312.839844 Z M 533.972656 312.839844 "/>
<path style=" stroke:none;fill-rule:nonzero;fill:rgb(20.784314%,97.647059%,14.901961%);fill-opacity:1;" d="M 527.195312 313.152344 C 527.339844 313.113281 527.453125 312.992188 527.472656 312.839844 C 527.492188 312.691406 527.421875 312.542969 527.289062 312.464844 L 523.332031 310.195312 L 527.15625 307.355469 C 527.320312 307.230469 527.355469 307 527.234375 306.832031 C 527.109375 306.667969 526.875 306.632812 526.710938 306.757812 L 522.429688 309.9375 C 522.332031 310.011719 522.273438 310.132812 522.28125 310.261719 C 522.289062 310.386719 522.359375 310.5 522.46875 310.5625 L 526.917969 313.113281 C 527 313.164062 527.101562 313.175781 527.195312 313.152344 Z M 527.195312 313.152344 "/>
<path style=" stroke:none;fill-rule:nonzero;fill:rgb(20.784314%,97.647059%,14.901961%);fill-opacity:1;" d="M 533.546875 315.304688 C 533.582031 315.292969 533.617188 315.28125 533.648438 315.257812 C 533.730469 315.207031 533.792969 315.125 533.816406 315.027344 C 533.839844 314.933594 533.824219 314.832031 533.773438 314.746094 L 527.6875 304.738281 C 527.582031 304.5625 527.351562 304.507812 527.175781 304.613281 C 527 304.71875 526.945312 304.949219 527.050781 305.125 L 533.136719 315.136719 C 533.21875 315.273438 533.386719 315.34375 533.546875 315.304688 Z M 533.546875 315.304688 "/>
<path style=" stroke:none;fill-rule:nonzero;fill:rgb(20.784314%,97.647059%,14.901961%);fill-opacity:1;" d="M 158.609375 194.707031 L 191.570312 194.707031 C 192.914062 194.707031 194.003906 195.800781 194.003906 197.144531 L 194.003906 200.367188 C 194.003906 201.714844 192.914062 202.804688 191.570312 202.804688 L 158.609375 202.804688 C 157.265625 202.804688 156.171875 201.714844 156.171875 200.367188 L 156.171875 197.144531 C 156.171875 195.800781 157.265625 194.707031 158.609375 194.707031 Z M 158.609375 194.707031 "/>
<path style=" stroke:none;fill-rule:nonzero;fill:rgb(90.196078%,90.196078%,90.196078%);fill-opacity:1;" d="M 139.394531 210.902344 L 210.78125 210.902344 C 212.125 210.902344 213.214844 211.992188 213.214844 213.335938 L 213.214844 216.5625 C 213.214844 217.90625 212.125 218.996094 210.78125 218.996094 L 139.394531 218.996094 C 138.050781 218.996094 136.960938 217.90625 136.960938 216.5625 L 136.960938 213.335938 C 136.960938 211.992188 138.050781 210.902344 139.394531 210.902344 Z M 139.394531 210.902344 "/>
<path style=" stroke:none;fill-rule:nonzero;fill:rgb(90.196078%,90.196078%,90.196078%);fill-opacity:1;" d="M 139.394531 227.09375 L 210.78125 227.09375 C 212.125 227.09375 213.214844 228.183594 213.214844 229.53125 L 213.214844 232.753906 C 213.214844 234.097656 212.125 235.191406 210.78125 235.191406 L 139.394531 235.191406 C 138.050781 235.191406 136.960938 234.097656 136.960938 232.753906 L 136.960938 229.53125 C 136.960938 228.183594 138.050781 227.09375 139.394531 227.09375 Z M 139.394531 227.09375 "/>
<path style=" stroke:none;fill-rule:nonzero;fill:rgb(24.705882%,23.921569%,33.72549%);fill-opacity:1;" d="M 216.832031 281.316406 L 216.996094 281.828125 L 217.003906 281.84375 L 221.871094 296.652344 L 227.46875 313.71875 L 238.003906 345.789062 L 238.105469 350.773438 L 238.105469 350.789062 L 238.886719 390.863281 L 236.71875 396.296875 L 239.160156 405.207031 C 239.160156 405.207031 238.035156 391.742188 232.011719 399.472656 C 228.601562 403.867188 224.609375 408.363281 221.332031 412.578125 C 226.105469 414.511719 230.957031 416.261719 235.882812 417.824219 C 236.949219 418.164062 238.019531 418.488281 239.089844 418.8125 C 239.320312 418.882812 239.550781 418.949219 239.78125 419.015625 C 256.113281 423.851562 272.996094 426.566406 290.015625 427.097656 C 290.902344 427.125 291.769531 427.140625 292.609375 427.160156 C 292.910156 427.167969 293.199219 427.175781 293.488281 427.175781 C 294.441406 427.183594 295.382812 427.191406 296.335938 427.191406 C 298.261719 427.191406 300.175781 427.164062 302.082031 427.105469 C 316.1875 426.710938 330.210938 424.8125 343.917969 421.445312 C 343.824219 415.78125 343.570312 409.164062 343.203125 402.097656 C 343.03125 398.628906 339.210938 394.875 338.984375 391.246094 C 338.820312 388.523438 342.25 385.957031 342.070312 383.191406 C 340.914062 366.152344 339.46875 372.691406 338.394531 360.625 C 338.285156 359.441406 338.183594 358.308594 338.089844 357.226562 C 337.398438 349.476562 336.925781 344.632812 336.925781 344.632812 L 341.5 315.753906 L 348.691406 270.417969 L 348.136719 269.503906 L 347.515625 269.199219 L 309.59375 250.414062 L 307.535156 245.132812 C 306.308594 242.019531 303.3125 239.96875 299.972656 239.945312 L 274.988281 239.84375 C 272.359375 239.832031 269.882812 241.089844 268.34375 243.226562 L 261.578125 252.601562 Z M 216.832031 281.316406 "/>
<path style=" stroke:none;fill-rule:nonzero;fill:rgb(24.705882%,23.921569%,33.72549%);fill-opacity:1;" d="M 243.761719 338.652344 L 238.105469 350.773438 L 234.242188 359.050781 L 227.597656 393.871094 L 224.269531 397.40625 L 221.417969 384.894531 L 191.585938 391.523438 C 190.609375 386.082031 191.324219 391.707031 190.71875 385.738281 C 190.890625 385.566406 191.070312 385.398438 191.246094 385.226562 C 191.722656 384.785156 192.125 384.367188 192.117188 383.96875 C 191.773438 363.375 192.796875 328.332031 201.320312 307.101562 C 202.65625 303.636719 204.417969 300.351562 206.5625 297.316406 C 206.734375 297.089844 206.894531 296.859375 207.054688 296.628906 C 210.988281 291.117188 213.472656 285.695312 216.996094 281.835938 L 216.996094 281.828125 C 217.015625 281.808594 217.035156 281.789062 217.054688 281.769531 C 217.066406 281.761719 217.078125 281.753906 217.089844 281.742188 L 241.285156 268.902344 L 242.324219 298.09375 L 243.066406 319.074219 Z M 243.761719 338.652344 "/>
<path style=" stroke:none;fill-rule:nonzero;fill:rgb(24.705882%,23.921569%,33.72549%);fill-opacity:1;" d="M 331.019531 342.097656 L 338.085938 357.230469 L 340.554688 362.503906 L 347.195312 397.320312 L 350.511719 400.847656 L 353.371094 388.339844 L 354.710938 388.0625 L 378.921875 383.042969 L 385.976562 405.472656 C 389.257812 400.007812 388.238281 392.984375 383.546875 388.671875 C 383.0625 388.238281 382.660156 387.8125 382.671875 387.410156 C 383.074219 363.191406 381.59375 318.96875 368.226562 300.765625 C 363.984375 294.992188 361.433594 289.238281 357.730469 285.21875 C 357.71875 285.207031 357.71875 285.195312 357.707031 285.195312 L 348.6875 270.414062 L 348.136719 269.507812 L 347.519531 269.199219 Z M 331.019531 342.097656 "/>
<path style=" stroke:none;fill-rule:nonzero;fill:rgb(100%,71.372549%,71.372549%);fill-opacity:1;" d="M 321.4375 199.464844 C 321.4375 217.835938 306.558594 232.730469 288.203125 232.730469 C 269.847656 232.730469 254.96875 217.835938 254.96875 199.464844 C 254.96875 181.09375 269.847656 166.203125 288.203125 166.203125 C 306.558594 166.203125 321.4375 181.09375 321.4375 199.464844 Z M 321.4375 199.464844 "/>
<path style=" stroke:none;fill-rule:nonzero;fill:rgb(18.431373%,18.039216%,25.490196%);fill-opacity:1;" d="M 333.121094 176.230469 C 332.601562 175.675781 331.878906 175.355469 331.117188 175.34375 L 331.617188 173.957031 C 331.949219 173.066406 331.773438 172.0625 331.164062 171.335938 C 330.550781 170.609375 329.59375 170.269531 328.660156 170.445312 L 326.84375 170.796875 L 327.011719 169.582031 C 327.148438 168.660156 326.785156 167.734375 326.0625 167.148438 C 325.335938 166.5625 324.359375 166.402344 323.484375 166.730469 C 322.695312 167.039062 321.808594 166.976562 321.070312 166.558594 C 320.328125 166.152344 319.804688 165.4375 319.636719 164.609375 L 319.003906 161.546875 L 318.9375 161.382812 C 315.847656 156.234375 309.910156 152.484375 302.644531 151.113281 C 296.179688 149.878906 289.546875 150.507812 283.15625 151.097656 C 280.621094 151.335938 277.757812 151.605469 275.371094 153.066406 C 273.339844 154.320312 271.625 156.832031 271.976562 159.359375 C 265.671875 157.425781 258.914062 161.285156 255.566406 166.15625 C 251.597656 171.945312 250.949219 179.203125 250.84375 184.875 C 250.5625 198.296875 253.328125 209.28125 259.050781 217.519531 C 259.46875 218.117188 259.570312 219.363281 260.398438 219.78125 L 260.226562 219.507812 C 261.152344 219.96875 262.09375 220.714844 261.742188 221.515625 C 260.734375 223.8125 267.425781 228.898438 272.140625 230.578125 C 280.738281 233.644531 292.175781 233.382812 300.214844 232.28125 L 300.496094 230.375 C 303.398438 229.980469 305.441406 229.226562 306.015625 228.046875 C 307.03125 227.179688 307.898438 226.40625 308.648438 225.6875 L 308.65625 225.679688 C 308.671875 225.664062 308.703125 225.644531 308.71875 225.628906 C 312.351562 222.140625 313.191406 220.15625 313.574219 217.132812 C 313.9375 214.167969 313.289062 211.160156 312.625 208.453125 C 326.601562 210.617188 307.121094 193.550781 320.144531 190.25 C 320.292969 190.207031 320.445312 190.167969 320.597656 190.140625 C 320.980469 190.050781 321.359375 189.960938 321.726562 189.855469 C 323.488281 189.378906 325.175781 188.65625 326.738281 187.714844 C 330.378906 185.496094 331.578125 182.554688 333.457031 179.242188 C 334.015625 178.273438 333.878906 177.054688 333.121094 176.230469 Z M 333.121094 176.230469 "/>
<path style=" stroke:none;fill-rule:nonzero;fill:rgb(18.431373%,18.039216%,25.490196%);fill-opacity:1;" d="M 405.746094 344.464844 C 405.742188 345.769531 405.726562 347.597656 405.664062 349.863281 C 405.65625 350.175781 405.652344 350.496094 405.644531 350.824219 C 405.546875 354.980469 405.449219 358.46875 405.292969 362.34375 C 405.285156 362.613281 405.277344 362.871094 405.261719 363.140625 C 405.054688 368.546875 404.726562 374.839844 404.160156 384.804688 C 403.105469 403.214844 401.273438 387.335938 399.429688 393.792969 C 399.339844 394.113281 399.242188 394.496094 399.152344 394.941406 C 398.875 396.566406 398.40625 398.152344 397.753906 399.667969 C 396.773438 400.25 395.769531 400.808594 394.777344 401.371094 C 391.949219 402.945312 389.078125 404.460938 386.183594 405.902344 C 384.558594 406.707031 382.925781 407.5 381.28125 408.261719 C 381.023438 408.378906 380.769531 408.5 380.515625 408.609375 C 372.113281 412.5 363.453125 415.808594 354.597656 418.511719 C 352.867188 419.03125 351.140625 419.539062 349.398438 420.011719 C 347.578125 420.519531 345.757812 420.996094 343.914062 421.445312 C 330.210938 424.8125 316.1875 426.710938 302.078125 427.109375 C 300.175781 427.167969 298.261719 427.191406 296.335938 427.191406 C 295.382812 427.191406 294.441406 427.183594 293.488281 427.175781 C 293.195312 427.175781 292.90625 427.167969 292.613281 427.160156 C 291.769531 427.140625 290.898438 427.125 290.019531 427.101562 C 272.996094 426.570312 256.113281 423.855469 239.785156 419.015625 L 239.089844 418.816406 C 238.015625 418.488281 236.949219 418.167969 235.882812 417.824219 C 230.960938 416.261719 226.109375 414.515625 221.332031 412.582031 C 217.683594 411.113281 214.078125 409.535156 210.515625 407.851562 C 210.484375 407.839844 210.453125 407.824219 210.425781 407.804688 C 209.679688 407.460938 208.925781 407.101562 208.179688 406.738281 C 208.085938 406.683594 207.980469 406.632812 207.875 406.582031 C 205.09375 405.222656 202.339844 403.796875 199.617188 402.3125 C 197.328125 397.046875 194.105469 396.039062 192.109375 391.410156 C 191.527344 390.035156 191.105469 388.597656 190.855469 387.125 C 190.855469 387.113281 190.847656 387.097656 190.847656 387.074219 C 191.054688 389.851562 189.960938 382.148438 190.839844 387.042969 C 190.832031 386.957031 190.824219 386.859375 190.816406 386.746094 C 190.796875 386.476562 190.765625 386.148438 190.722656 385.738281 C 188.164062 360.738281 188.328125 332.148438 187.214844 308.585938 C 187.140625 307.0625 187.0625 305.605469 186.984375 304.210938 C 186.960938 303.75 186.933594 303.292969 186.902344 302.847656 C 186.953125 302.710938 187.015625 302.570312 187.082031 302.4375 C 187.09375 302.398438 187.113281 302.359375 187.132812 302.324219 C 187.15625 302.277344 187.179688 302.234375 187.207031 302.191406 C 187.222656 302.167969 187.246094 302.136719 187.261719 302.113281 C 187.269531 302.089844 187.285156 302.066406 187.296875 302.039062 C 187.363281 301.9375 187.4375 301.824219 187.519531 301.71875 C 187.558594 301.675781 187.589844 301.636719 187.625 301.601562 C 187.652344 301.5625 187.679688 301.527344 187.714844 301.496094 C 187.738281 301.460938 187.765625 301.425781 187.796875 301.398438 C 187.828125 301.367188 187.855469 301.332031 187.894531 301.292969 C 187.910156 301.269531 187.929688 301.25 187.953125 301.234375 C 188.011719 301.167969 188.078125 301.105469 188.148438 301.046875 C 188.414062 300.800781 188.699219 300.578125 188.996094 300.375 C 189.101562 300.308594 189.214844 300.242188 189.320312 300.167969 C 190.070312 299.714844 190.863281 299.335938 191.683594 299.03125 C 191.964844 298.925781 192.25 298.832031 192.554688 298.726562 C 192.667969 298.695312 192.773438 298.660156 192.882812 298.621094 C 193.046875 298.570312 193.210938 298.515625 193.382812 298.480469 C 194.234375 298.226562 195.152344 298.007812 196.144531 297.808594 C 196.261719 297.785156 196.390625 297.761719 196.515625 297.734375 C 196.695312 297.695312 196.882812 297.664062 197.066406 297.636719 C 197.320312 297.589844 197.582031 297.546875 197.84375 297.5 C 200.058594 297.152344 202.574219 296.890625 205.347656 296.71875 C 205.609375 296.703125 205.871094 296.6875 206.128906 296.671875 C 206.4375 296.65625 206.742188 296.644531 207.054688 296.628906 C 207.316406 296.613281 207.585938 296.605469 207.851562 296.597656 C 208.113281 296.582031 208.382812 296.574219 208.660156 296.570312 C 209.414062 296.546875 210.1875 296.523438 210.980469 296.507812 C 213.230469 296.464844 215.601562 296.480469 218.09375 296.53125 C 219.25 296.5625 220.429688 296.589844 221.636719 296.644531 C 221.71875 296.644531 221.792969 296.652344 221.867188 296.652344 C 222.921875 296.6875 223.980469 296.734375 225.066406 296.792969 C 225.828125 296.828125 226.597656 296.867188 227.367188 296.910156 C 228.089844 296.957031 228.820312 297 229.558594 297.054688 C 230.132812 297.082031 230.707031 297.128906 231.289062 297.164062 C 231.78125 297.203125 232.273438 297.242188 232.765625 297.269531 L 233.4375 297.316406 C 233.800781 297.34375 234.167969 297.367188 234.539062 297.40625 C 235.359375 297.472656 236.179688 297.539062 237.015625 297.605469 C 237.84375 297.679688 238.6875 297.753906 239.53125 297.832031 C 240.375 297.90625 241.222656 297.988281 242.074219 298.070312 C 242.164062 298.078125 242.246094 298.082031 242.328125 298.089844 C 243.101562 298.171875 243.878906 298.25 244.660156 298.332031 C 244.839844 298.34375 245.027344 298.359375 245.207031 298.382812 C 245.953125 298.457031 246.714844 298.546875 247.46875 298.625 C 247.699219 298.652344 247.929688 298.675781 248.160156 298.699219 C 248.75 298.765625 249.332031 298.820312 249.929688 298.890625 C 250.710938 298.980469 251.507812 299.0625 252.285156 299.167969 C 252.890625 299.234375 253.492188 299.300781 254.097656 299.375 C 255.042969 299.488281 256.007812 299.605469 256.96875 299.734375 C 257.335938 299.777344 257.699219 299.824219 258.066406 299.875 C 260.808594 300.21875 263.585938 300.601562 266.402344 300.996094 C 270.679688 301.601562 275.019531 302.257812 279.390625 302.964844 C 283.769531 303.675781 288.171875 304.425781 292.597656 305.214844 C 293.71875 305.414062 294.835938 305.617188 295.964844 305.824219 C 296.46875 305.921875 296.976562 306.019531 297.484375 306.117188 C 298.351562 306.273438 299.214844 306.4375 300.082031 306.601562 C 300.945312 306.765625 301.8125 306.929688 302.675781 307.101562 C 303.707031 307.304688 304.742188 307.503906 305.769531 307.707031 C 312.550781 309.050781 319.292969 310.484375 325.871094 311.984375 C 326.953125 312.230469 328.035156 312.484375 329.109375 312.730469 C 331.257812 313.230469 333.386719 313.738281 335.492188 314.253906 C 336.074219 314.386719 336.648438 314.53125 337.222656 314.671875 C 338.65625 315.03125 340.089844 315.386719 341.5 315.753906 L 341.746094 315.820312 C 342.78125 316.074219 343.796875 316.335938 344.808594 316.605469 C 347.203125 317.230469 349.558594 317.867188 351.875 318.507812 C 353.410156 318.933594 354.929688 319.363281 356.429688 319.800781 C 358.675781 320.449219 360.875 321.105469 363.015625 321.769531 C 363.546875 321.933594 364.074219 322.097656 364.597656 322.253906 C 366.164062 322.742188 367.707031 323.234375 369.207031 323.726562 C 370.402344 324.113281 371.5625 324.511719 372.714844 324.90625 C 373.863281 325.300781 374.988281 325.695312 376.09375 326.09375 C 376.800781 326.347656 377.5 326.617188 378.203125 326.867188 C 379.210938 327.242188 380.203125 327.617188 381.171875 327.988281 C 381.46875 328.101562 381.761719 328.21875 382.050781 328.332031 C 382.238281 328.414062 382.417969 328.480469 382.597656 328.554688 C 382.945312 328.699219 383.304688 328.832031 383.648438 328.972656 C 384 329.109375 384.339844 329.25 384.683594 329.398438 C 385.019531 329.535156 385.363281 329.675781 385.691406 329.816406 C 386.027344 329.953125 386.355469 330.09375 386.683594 330.242188 C 386.960938 330.355469 387.226562 330.476562 387.488281 330.59375 C 388.019531 330.824219 388.546875 331.058594 389.0625 331.296875 C 389.316406 331.414062 389.570312 331.527344 389.824219 331.648438 L 390.40625 331.914062 C 390.488281 331.960938 390.570312 331.996094 390.652344 332.035156 C 390.835938 332.125 391.03125 332.222656 391.21875 332.3125 C 391.652344 332.511719 392.074219 332.730469 392.492188 332.929688 C 393.054688 333.214844 393.597656 333.496094 394.121094 333.773438 C 394.648438 334.058594 395.164062 334.339844 395.65625 334.617188 C 395.738281 334.664062 395.8125 334.707031 395.894531 334.753906 C 396.007812 334.8125 396.117188 334.878906 396.230469 334.9375 C 396.609375 335.15625 396.976562 335.378906 397.339844 335.59375 C 398.058594 336.035156 398.738281 336.46875 399.371094 336.902344 C 399.511719 337 399.644531 337.097656 399.789062 337.1875 C 400.257812 337.523438 400.707031 337.851562 401.125 338.1875 C 401.125 338.195312 401.125 338.195312 401.128906 338.195312 C 401.273438 338.296875 401.40625 338.410156 401.539062 338.515625 C 401.652344 338.617188 401.773438 338.707031 401.882812 338.8125 C 402.273438 339.148438 402.628906 339.46875 402.957031 339.796875 C 403.066406 339.898438 403.171875 340.007812 403.269531 340.121094 C 403.316406 340.15625 403.355469 340.195312 403.390625 340.238281 C 403.539062 340.386719 403.675781 340.539062 403.800781 340.6875 C 403.820312 340.707031 403.839844 340.730469 403.851562 340.753906 C 404.03125 340.964844 404.195312 341.171875 404.351562 341.382812 C 404.425781 341.484375 404.507812 341.589844 404.578125 341.695312 C 404.667969 341.820312 404.753906 341.957031 404.832031 342.082031 C 404.898438 342.1875 404.957031 342.300781 405.015625 342.402344 C 405.175781 342.671875 405.308594 342.953125 405.417969 343.246094 C 405.503906 343.445312 405.570312 343.648438 405.621094 343.859375 C 405.675781 344.058594 405.71875 344.261719 405.746094 344.464844 Z M 405.746094 344.464844 "/>
<use xlink:href="#surface5" mask="url(#mask0)"/>
</g>
</svg>
